<?xml version="1.0" encoding="UTF-8"?>
<svg xmlns="http://www.w3.org/2000/svg" xmlns:xlink="http://www.w3.org/1999/xlink" width="140px" height="140px" viewBox="0 0 140 140" version="1.1">
<defs>
<clipPath id="clip1">
  <path d="M 11.660156 12.433594 L 132.859375 12.433594 L 132.859375 126 L 11.660156 126 Z M 11.660156 12.433594 "/>
</clipPath>
<clipPath id="clip2">
  <path d="M 34.375 12.433594 L 109.992188 12.433594 C 122.539062 12.433594 132.707031 37.855469 132.707031 69.214844 C 132.707031 100.578125 122.539062 126 109.992188 126 L 34.375 126 C 21.828125 126 11.660156 100.578125 11.660156 69.214844 C 11.660156 37.855469 21.828125 12.433594 34.375 12.433594 Z M 34.375 12.433594 "/>
</clipPath>
<clipPath id="clip3">
  <path d="M 17.679688 46.582031 L 108.265625 46.582031 L 108.265625 102.582031 L 17.679688 102.582031 Z M 17.679688 46.582031 "/>
</clipPath>
<clipPath id="clip4">
  <path d="M 108.980469 56 L 117.972656 56 L 117.972656 79 L 108.980469 79 Z M 108.980469 56 "/>
</clipPath>
<clipPath id="clip5">
  <path d="M 108.980469 48 L 110.132812 48 L 110.132812 56 L 108.980469 56 Z M 108.980469 48 "/>
</clipPath>
<clipPath id="clip6">
  <path d="M 108.980469 45 L 110.878906 45 L 110.878906 56 L 108.980469 56 Z M 108.980469 45 "/>
</clipPath>
<clipPath id="clip7">
  <path d="M 108.980469 41.066406 L 111.253906 41.066406 L 111.253906 56 L 108.980469 56 Z M 108.980469 41.066406 "/>
</clipPath>
<clipPath id="clip8">
  <path d="M 108.980469 36 L 110 36 L 110 39 L 108.980469 39 Z M 108.980469 36 "/>
</clipPath>
<clipPath id="clip9">
  <path d="M 109.761719 32.824219 L 110.878906 32.824219 L 110.878906 35.464844 L 109.761719 35.464844 Z M 109.761719 32.824219 "/>
</clipPath>
<clipPath id="clip10">
  <path d="M 114 32.824219 L 114.988281 32.824219 L 114.988281 35.464844 L 114 35.464844 Z M 114 32.824219 "/>
</clipPath>
<clipPath id="clip11">
  <path d="M 108.980469 81 L 111.253906 81 L 111.253906 94 L 108.980469 94 Z M 108.980469 81 "/>
</clipPath>
<clipPath id="clip12">
  <path d="M 108.980469 80.265625 L 110.878906 80.265625 L 110.878906 94 L 108.980469 94 Z M 108.980469 80.265625 "/>
</clipPath>
<clipPath id="clip13">
  <path d="M 108.980469 80.265625 L 110.132812 80.265625 L 110.132812 85.867188 L 108.980469 85.867188 Z M 108.980469 80.265625 "/>
</clipPath>
<clipPath id="clip14">
  <path d="M 115.734375 100 L 116.851562 100 L 116.851562 102.824219 L 115.734375 102.824219 Z M 115.734375 100 "/>
</clipPath>
<clipPath id="clip15">
  <path d="M 111.253906 100 L 112.746094 100 L 112.746094 102.824219 L 111.253906 102.824219 Z M 111.253906 100 "/>
</clipPath>
<clipPath id="clip16">
  <path d="M 108.980469 92.398438 L 109.761719 92.398438 L 109.761719 95 L 108.980469 95 Z M 108.980469 92.398438 "/>
</clipPath>
<clipPath id="clip17">
  <path d="M 108.980469 83.066406 L 109.386719 83.066406 L 109.386719 86 L 108.980469 86 Z M 108.980469 83.066406 "/>
</clipPath>
<clipPath id="clip18">
  <path d="M 126.1875 59 L 127.453125 59 L 127.453125 61.601562 L 126.1875 61.601562 Z M 126.1875 59 "/>
</clipPath>
<clipPath id="clip19">
  <path d="M 126.1875 69.066406 L 127.453125 69.066406 L 127.453125 72.800781 L 126.1875 72.800781 Z M 126.1875 69.066406 "/>
</clipPath>
<clipPath id="clip20">
  <path d="M 79.566406 60.808594 L 84.324219 60.808594 L 84.324219 74.808594 L 79.566406 74.808594 Z M 79.566406 60.808594 "/>
</clipPath>
</defs>
<g id="surface1">
<rect x="0" y="0" width="140" height="140" style="fill:rgb(100%,100%,100%);fill-opacity:1;stroke:none;"/>
<g clip-path="url(#clip1)" clip-rule="nonzero">
<g clip-path="url(#clip2)" clip-rule="nonzero">
<path style=" stroke:none;fill-rule:nonzero;fill:rgb(100%,100%,100%);fill-opacity:1;" d="M 11.660156 12.433594 L 132.683594 12.433594 L 132.683594 126 L 11.660156 126 Z M 11.660156 12.433594 "/>
</g>
</g>
<g clip-path="url(#clip3)" clip-rule="nonzero">
<path style=" stroke:none;fill-rule:nonzero;fill:rgb(21.960784%,71.372551%,100%);fill-opacity:1;" d="M 49.527344 79.851562 C 48.328125 79.851562 47.128906 80.382812 46.007812 81.449219 L 45.777344 81.640625 C 45.621094 81.785156 45.425781 81.640625 45.351562 81.253906 L 44.5 77.386719 C 44.246094 76.273438 43.800781 75.695312 43.300781 75.789062 C 42.796875 75.933594 42.390625 76.753906 42.253906 77.917969 L 41.636719 82.851562 C 41.578125 83.332031 41.425781 83.71875 41.25 83.863281 C 41.054688 84.011719 40.863281 83.964844 40.6875 83.671875 L 40.261719 82.945312 C 40.109375 82.707031 39.992188 82.320312 39.914062 81.933594 L 38.078125 71.96875 C 37.882812 70.902344 37.457031 70.324219 36.992188 70.46875 C 36.53125 70.617188 36.179688 71.4375 36.085938 72.597656 L 34.324219 96.195312 L 33.085938 47.988281 C 33.046875 47.261719 32.777344 46.582031 32.429688 46.582031 C 32.101562 46.582031 31.8125 47.210938 31.792969 48.035156 L 30.746094 78.207031 L 30.089844 76.222656 C 29.933594 75.742188 29.664062 75.5 29.429688 75.695312 C 29.179688 75.835938 28.984375 76.320312 28.929688 76.949219 L 27.960938 87.445312 L 27.785156 85.023438 C 27.574219 82.074219 26.53125 79.898438 25.332031 79.898438 L 9.179688 79.898438 L 9.179688 82.125 L 25.332031 82.125 C 26.105469 82.125 26.78125 83.527344 26.917969 85.414062 L 27.167969 88.894531 C 27.246094 89.816406 27.554688 90.488281 27.941406 90.535156 C 28.328125 90.589844 28.65625 89.910156 28.734375 88.992188 L 29.703125 78.546875 L 30.417969 80.675781 C 30.589844 81.207031 30.863281 81.402344 31.132812 81.207031 C 31.386719 81.015625 31.578125 80.429688 31.597656 79.757812 L 32.410156 56.15625 L 33.570312 101.226562 C 33.589844 102.046875 33.84375 102.675781 34.171875 102.726562 C 34.1875 102.726562 34.1875 102.726562 34.210938 102.726562 C 34.519531 102.726562 34.789062 102.191406 34.847656 101.417969 L 36.957031 73.179688 C 36.972656 72.886719 37.050781 72.839844 37.109375 72.839844 C 37.148438 72.839844 37.246094 72.839844 37.285156 73.082031 L 39.121094 83.042969 C 39.257812 83.816406 39.488281 84.496094 39.761719 84.976562 L 40.1875 85.703125 C 40.59375 86.378906 41.074219 86.574219 41.539062 86.136719 C 42.003906 85.75 42.332031 84.882812 42.488281 83.71875 L 43.105469 78.785156 C 43.164062 78.257812 43.359375 78.207031 43.398438 78.160156 C 43.457031 78.160156 43.628906 78.160156 43.746094 78.59375 L 44.597656 82.460938 C 44.886719 83.816406 45.542969 84.398438 46.105469 83.863281 L 46.335938 83.671875 C 47.363281 82.707031 48.445312 82.222656 49.546875 82.222656 L 108.214844 82.222656 L 108.214844 79.996094 L 49.527344 79.996094 Z M 49.527344 79.851562 "/>
</g>
<g clip-path="url(#clip4)" clip-rule="nonzero">
<path style=" stroke:none;fill-rule:nonzero;fill:rgb(0%,29.019609%,67.843139%);fill-opacity:1;" d="M 117.296875 57.867188 L 117.296875 77.679688 L 109.21875 77.679688 L 109.21875 57.867188 L 117.296875 57.867188 M 117.679688 56.910156 L 108.839844 56.910156 L 108.839844 78.628906 L 117.679688 78.628906 Z M 117.679688 56.910156 "/>
</g>
<path style=" stroke:none;fill-rule:nonzero;fill:rgb(0%,29.019609%,67.843139%);fill-opacity:1;" d="M 109.816406 53.804688 L 110.285156 53.804688 L 110.285156 57.074219 L 109.816406 57.074219 Z M 109.816406 53.804688 "/>
<path style=" stroke:none;fill-rule:nonzero;fill:rgb(0%,29.019609%,67.843139%);fill-opacity:1;" d="M 110.359375 53.804688 L 110.824219 53.804688 L 110.824219 57.074219 L 110.359375 57.074219 Z M 110.359375 53.804688 "/>
<path style=" stroke:none;fill-rule:nonzero;fill:rgb(0%,29.019609%,67.843139%);fill-opacity:1;" d="M 110.898438 53.804688 L 111.363281 53.804688 L 111.363281 57.074219 L 110.898438 57.074219 Z M 110.898438 53.804688 "/>
<path style=" stroke:none;fill-rule:nonzero;fill:rgb(0%,29.019609%,67.843139%);fill-opacity:1;" d="M 111.4375 53.804688 L 111.902344 53.804688 L 111.902344 57.074219 L 111.4375 57.074219 Z M 111.4375 53.804688 "/>
<path style=" stroke:none;fill-rule:nonzero;fill:rgb(0%,29.019609%,67.843139%);fill-opacity:1;" d="M 111.976562 53.804688 L 112.441406 53.804688 L 112.441406 57.074219 L 111.976562 57.074219 Z M 111.976562 53.804688 "/>
<path style=" stroke:none;fill-rule:nonzero;fill:rgb(0%,29.019609%,67.843139%);fill-opacity:1;" d="M 112.519531 53.804688 L 112.984375 53.804688 L 112.984375 57.074219 L 112.519531 57.074219 Z M 112.519531 53.804688 "/>
<path style=" stroke:none;fill-rule:nonzero;fill:rgb(0%,29.019609%,67.843139%);fill-opacity:1;" d="M 113.058594 53.804688 L 113.523438 53.804688 L 113.523438 57.074219 L 113.058594 57.074219 Z M 113.058594 53.804688 "/>
<path style=" stroke:none;fill-rule:nonzero;fill:rgb(0%,29.019609%,67.843139%);fill-opacity:1;" d="M 113.597656 53.804688 L 114.0625 53.804688 L 114.0625 57.074219 L 113.597656 57.074219 Z M 113.597656 53.804688 "/>
<path style=" stroke:none;fill-rule:nonzero;fill:rgb(0%,29.019609%,67.843139%);fill-opacity:1;" d="M 114.136719 53.804688 L 114.601562 53.804688 L 114.601562 57.074219 L 114.136719 57.074219 Z M 114.136719 53.804688 "/>
<path style=" stroke:none;fill-rule:nonzero;fill:rgb(0%,29.019609%,67.843139%);fill-opacity:1;" d="M 114.675781 53.804688 L 115.144531 53.804688 L 115.144531 57.074219 L 114.675781 57.074219 Z M 114.675781 53.804688 "/>
<path style=" stroke:none;fill-rule:nonzero;fill:rgb(0%,29.019609%,67.843139%);fill-opacity:1;" d="M 115.21875 53.804688 L 115.683594 53.804688 L 115.683594 57.074219 L 115.21875 57.074219 Z M 115.21875 53.804688 "/>
<path style=" stroke:none;fill-rule:nonzero;fill:rgb(0%,29.019609%,67.843139%);fill-opacity:1;" d="M 115.757812 53.804688 L 116.222656 53.804688 L 116.222656 57.074219 L 115.757812 57.074219 Z M 115.757812 53.804688 "/>
<path style=" stroke:none;fill-rule:nonzero;fill:rgb(0%,29.019609%,67.843139%);fill-opacity:1;" d="M 116.296875 53.804688 L 116.761719 53.804688 L 116.761719 57.074219 L 116.296875 57.074219 Z M 116.296875 53.804688 "/>
<g clip-path="url(#clip5)" clip-rule="nonzero">
<path style=" stroke:none;fill-rule:nonzero;fill:rgb(0%,29.019609%,67.843139%);fill-opacity:1;" d="M 110.113281 55.34375 L 109.988281 55.34375 L 109.988281 50.625 L 109.265625 48.820312 L 108.398438 48.820312 L 108.15625 49.433594 L 105.738281 49.433594 L 105.738281 49.117188 L 108.101562 49.117188 L 108.347656 48.503906 L 109.316406 48.503906 L 110.113281 50.496094 Z M 110.113281 55.34375 "/>
</g>
<g clip-path="url(#clip6)" clip-rule="nonzero">
<path style=" stroke:none;fill-rule:nonzero;fill:rgb(0%,29.019609%,67.843139%);fill-opacity:1;" d="M 110.667969 55.570312 L 110.542969 55.570312 L 110.542969 50.140625 L 109.542969 47.648438 L 107.40625 47.648438 L 106.480469 45.328125 L 105.738281 45.328125 L 105.738281 45.011719 L 106.53125 45.011719 L 107.457031 47.328125 L 109.59375 47.328125 L 110.667969 50.011719 Z M 110.667969 55.570312 "/>
</g>
<g clip-path="url(#clip7)" clip-rule="nonzero">
<path style=" stroke:none;fill-rule:nonzero;fill:rgb(0%,29.019609%,67.843139%);fill-opacity:1;" d="M 111.21875 55.441406 L 111.089844 55.441406 L 111.089844 49.347656 L 109.59375 45.605469 L 108.929688 45.605469 L 108.214844 43.820312 L 107.28125 43.820312 L 106.378906 41.570312 L 106.46875 41.34375 L 107.332031 43.503906 L 108.269531 43.503906 L 108.980469 45.289062 L 109.644531 45.289062 L 111.21875 49.214844 Z M 111.21875 55.441406 "/>
</g>
<path style=" stroke:none;fill-rule:nonzero;fill:rgb(0%,29.019609%,67.843139%);fill-opacity:1;" d="M 111.738281 55.058594 L 111.613281 55.058594 L 111.613281 48.503906 L 110.046875 44.597656 L 110.046875 42.25 L 109.351562 40.511719 L 109.351562 37.199219 L 109.480469 37.199219 L 109.480469 40.382812 L 110.175781 42.121094 L 110.175781 44.464844 L 111.738281 48.371094 Z M 111.738281 55.058594 "/>
<path style=" stroke:none;fill-rule:nonzero;fill:rgb(0%,29.019609%,67.843139%);fill-opacity:1;" d="M 112.277344 55.058594 L 112.148438 55.054688 L 112.164062 47.457031 L 110.683594 43.757812 L 110.683594 40.683594 L 110.199219 39.46875 L 110.199219 33.933594 L 110.324219 33.933594 L 110.324219 39.339844 L 110.8125 40.550781 L 110.8125 43.625 L 112.292969 47.328125 Z M 112.277344 55.058594 "/>
<path style=" stroke:none;fill-rule:nonzero;fill:rgb(0%,29.019609%,67.843139%);fill-opacity:1;" d="M 112.6875 46.738281 L 112.8125 46.738281 L 112.8125 55.054688 L 112.6875 55.054688 Z M 112.6875 46.738281 "/>
<path style=" stroke:none;fill-rule:nonzero;fill:rgb(0%,29.019609%,67.843139%);fill-opacity:1;" d="M 113.34375 55.058594 L 113.214844 55.058594 L 113.214844 43.039062 L 112.417969 41.042969 L 112.417969 39.75 L 112.542969 39.75 L 112.542969 40.910156 L 113.34375 42.90625 Z M 113.34375 55.058594 "/>
<path style=" stroke:none;fill-rule:nonzero;fill:rgb(0%,29.019609%,67.843139%);fill-opacity:1;" d="M 113.90625 54.617188 L 113.777344 54.617188 L 113.777344 42.710938 L 114.539062 40.800781 L 114.539062 39.445312 L 114.074219 38.277344 L 114.164062 38.050781 L 114.667969 39.3125 L 114.667969 40.933594 L 113.90625 42.84375 Z M 113.90625 54.617188 "/>
<path style=" stroke:none;fill-rule:nonzero;fill:rgb(0%,29.019609%,67.843139%);fill-opacity:1;" d="M 114.421875 54.949219 L 114.292969 54.949219 L 114.292969 46.570312 L 115.371094 43.882812 L 115.371094 39.578125 L 114.496094 37.390625 L 114.496094 33.933594 L 114.621094 33.933594 L 114.621094 37.261719 L 115.496094 39.449219 L 115.496094 44.011719 L 114.421875 46.703125 Z M 114.421875 54.949219 "/>
<path style=" stroke:none;fill-rule:nonzero;fill:rgb(0%,29.019609%,67.843139%);fill-opacity:1;" d="M 114.964844 55.058594 L 114.835938 55.058594 L 114.835938 48.425781 L 116.070312 45.34375 L 116.070312 38.496094 L 115.597656 37.3125 L 115.6875 37.085938 L 116.199219 38.363281 L 116.199219 45.472656 L 114.964844 48.5625 Z M 114.964844 55.058594 "/>
<path style=" stroke:none;fill-rule:nonzero;fill:rgb(0%,29.019609%,67.843139%);fill-opacity:1;" d="M 115.511719 54.484375 L 115.382812 54.484375 L 115.382812 49.910156 L 116.730469 46.535156 L 116.730469 43.683594 L 117.503906 41.753906 L 117.59375 41.980469 L 116.859375 43.816406 L 116.859375 46.667969 L 115.511719 50.042969 Z M 115.511719 54.484375 "/>
<path style=" stroke:none;fill-rule:nonzero;fill:rgb(0%,29.019609%,67.843139%);fill-opacity:1;" d="M 116.050781 54.949219 L 115.925781 54.949219 L 115.925781 51.066406 L 116.984375 48.417969 L 119.304688 48.417969 L 120.144531 46.328125 L 120.144531 43.308594 L 120.726562 41.847656 L 121.234375 41.847656 L 121.234375 42.164062 L 120.78125 42.164062 L 120.269531 43.441406 L 120.269531 46.457031 L 119.359375 48.738281 L 117.035156 48.738281 L 116.050781 51.199219 Z M 116.050781 54.949219 "/>
<path style=" stroke:none;fill-rule:nonzero;fill:rgb(0%,29.019609%,67.843139%);fill-opacity:1;" d="M 116.582031 54.863281 L 116.453125 54.863281 L 116.453125 52.003906 L 117.046875 50.519531 L 117.59375 50.519531 L 117.59375 50.835938 L 117.101562 50.835938 L 116.582031 52.136719 Z M 116.582031 54.863281 "/>
<g clip-path="url(#clip8)" clip-rule="nonzero">
<path style=" stroke:none;fill-rule:nonzero;fill:rgb(0%,29.019609%,67.843139%);fill-opacity:1;" d="M 109.855469 37.199219 C 109.855469 37.34375 109.84375 37.484375 109.820312 37.617188 C 109.796875 37.753906 109.765625 37.871094 109.726562 37.972656 C 109.683594 38.074219 109.636719 38.152344 109.582031 38.207031 C 109.53125 38.265625 109.472656 38.292969 109.414062 38.292969 C 109.359375 38.292969 109.300781 38.265625 109.25 38.207031 C 109.195312 38.152344 109.148438 38.074219 109.105469 37.972656 C 109.066406 37.871094 109.035156 37.753906 109.011719 37.617188 C 108.988281 37.484375 108.976562 37.34375 108.976562 37.199219 C 108.976562 37.050781 108.988281 36.914062 109.011719 36.777344 C 109.035156 36.644531 109.066406 36.527344 109.105469 36.425781 C 109.148438 36.324219 109.195312 36.242188 109.25 36.1875 C 109.300781 36.128906 109.359375 36.105469 109.414062 36.105469 C 109.472656 36.105469 109.53125 36.128906 109.582031 36.1875 C 109.636719 36.242188 109.683594 36.324219 109.726562 36.425781 C 109.765625 36.527344 109.796875 36.644531 109.820312 36.777344 C 109.84375 36.914062 109.855469 37.050781 109.855469 37.199219 Z M 109.855469 37.199219 "/>
</g>
<g clip-path="url(#clip9)" clip-rule="nonzero">
<path style=" stroke:none;fill-rule:nonzero;fill:rgb(0%,29.019609%,67.843139%);fill-opacity:1;" d="M 110.699219 33.933594 C 110.699219 34.078125 110.6875 34.214844 110.667969 34.351562 C 110.644531 34.484375 110.613281 34.605469 110.574219 34.707031 C 110.53125 34.808594 110.484375 34.890625 110.429688 34.945312 C 110.375 35 110.320312 35.027344 110.261719 35.027344 C 110.203125 35.027344 110.148438 35 110.09375 34.945312 C 110.042969 34.890625 109.996094 34.808594 109.953125 34.707031 C 109.910156 34.605469 109.882812 34.484375 109.859375 34.351562 C 109.835938 34.214844 109.824219 34.078125 109.824219 33.933594 C 109.824219 33.789062 109.835938 33.648438 109.859375 33.511719 C 109.882812 33.382812 109.910156 33.261719 109.953125 33.160156 C 109.996094 33.058594 110.042969 32.976562 110.09375 32.921875 C 110.148438 32.867188 110.203125 32.839844 110.261719 32.839844 C 110.320312 32.839844 110.375 32.867188 110.429688 32.921875 C 110.484375 32.976562 110.53125 33.058594 110.574219 33.160156 C 110.613281 33.261719 110.644531 33.382812 110.667969 33.511719 C 110.6875 33.648438 110.699219 33.789062 110.699219 33.933594 Z M 110.699219 33.933594 "/>
</g>
<path style=" stroke:none;fill-rule:nonzero;fill:rgb(0%,29.019609%,67.843139%);fill-opacity:1;" d="M 112.878906 39.75 C 112.878906 39.894531 112.871094 40.039062 112.847656 40.167969 C 112.824219 40.304688 112.792969 40.425781 112.753906 40.527344 C 112.710938 40.628906 112.664062 40.710938 112.609375 40.765625 C 112.558594 40.820312 112.5 40.847656 112.441406 40.847656 C 112.386719 40.847656 112.328125 40.820312 112.277344 40.765625 C 112.222656 40.710938 112.171875 40.628906 112.132812 40.527344 C 112.09375 40.425781 112.058594 40.304688 112.039062 40.167969 C 112.015625 40.039062 112.003906 39.894531 112.003906 39.75 C 112.003906 39.609375 112.015625 39.464844 112.039062 39.335938 C 112.058594 39.199219 112.09375 39.078125 112.132812 38.976562 C 112.171875 38.875 112.222656 38.796875 112.277344 38.742188 C 112.328125 38.6875 112.386719 38.65625 112.441406 38.65625 C 112.5 38.65625 112.558594 38.6875 112.609375 38.742188 C 112.664062 38.796875 112.710938 38.875 112.753906 38.976562 C 112.792969 39.078125 112.824219 39.199219 112.847656 39.335938 C 112.871094 39.464844 112.878906 39.609375 112.878906 39.75 Z M 112.878906 39.75 "/>
<path style=" stroke:none;fill-rule:nonzero;fill:rgb(0%,29.019609%,67.843139%);fill-opacity:1;" d="M 113.117188 47.085938 C 113.117188 47.335938 113.082031 47.550781 113.007812 47.730469 C 112.9375 47.910156 112.851562 48 112.75 48 C 112.648438 48 112.5625 47.910156 112.492188 47.730469 C 112.421875 47.550781 112.386719 47.335938 112.386719 47.085938 C 112.386719 46.832031 112.421875 46.617188 112.492188 46.4375 C 112.5625 46.257812 112.648438 46.171875 112.75 46.171875 C 112.851562 46.171875 112.9375 46.257812 113.007812 46.4375 C 113.082031 46.617188 113.117188 46.832031 113.117188 47.085938 Z M 113.117188 47.085938 "/>
<g clip-path="url(#clip10)" clip-rule="nonzero">
<path style=" stroke:none;fill-rule:nonzero;fill:rgb(0%,29.019609%,67.843139%);fill-opacity:1;" d="M 114.980469 33.933594 C 114.980469 34.078125 114.96875 34.214844 114.949219 34.351562 C 114.925781 34.484375 114.894531 34.605469 114.855469 34.707031 C 114.8125 34.808594 114.765625 34.890625 114.710938 34.945312 C 114.660156 35 114.601562 35.027344 114.542969 35.027344 C 114.488281 35.027344 114.429688 35 114.378906 34.945312 C 114.324219 34.890625 114.273438 34.808594 114.234375 34.707031 C 114.191406 34.605469 114.160156 34.484375 114.140625 34.351562 C 114.117188 34.214844 114.105469 34.078125 114.105469 33.933594 C 114.105469 33.789062 114.117188 33.648438 114.140625 33.511719 C 114.160156 33.382812 114.191406 33.261719 114.234375 33.160156 C 114.273438 33.058594 114.324219 32.976562 114.378906 32.921875 C 114.429688 32.867188 114.488281 32.839844 114.542969 32.839844 C 114.601562 32.839844 114.660156 32.867188 114.710938 32.921875 C 114.765625 32.976562 114.8125 33.058594 114.855469 33.160156 C 114.894531 33.261719 114.925781 33.382812 114.949219 33.511719 C 114.96875 33.648438 114.980469 33.789062 114.980469 33.933594 Z M 114.980469 33.933594 "/>
</g>
<path style=" stroke:none;fill-rule:nonzero;fill:rgb(0%,29.019609%,67.843139%);fill-opacity:1;" d="M 116.105469 37.199219 C 116.105469 37.34375 116.09375 37.484375 116.074219 37.617188 C 116.050781 37.753906 116.019531 37.871094 115.976562 37.972656 C 115.9375 38.074219 115.890625 38.152344 115.835938 38.207031 C 115.78125 38.265625 115.726562 38.292969 115.667969 38.292969 C 115.609375 38.292969 115.554688 38.265625 115.5 38.207031 C 115.445312 38.152344 115.398438 38.074219 115.359375 37.972656 C 115.316406 37.871094 115.285156 37.753906 115.265625 37.617188 C 115.242188 37.484375 115.230469 37.34375 115.230469 37.199219 C 115.230469 37.050781 115.242188 36.914062 115.265625 36.777344 C 115.285156 36.644531 115.316406 36.527344 115.359375 36.425781 C 115.398438 36.324219 115.445312 36.242188 115.5 36.1875 C 115.554688 36.128906 115.609375 36.105469 115.667969 36.105469 C 115.726562 36.105469 115.78125 36.128906 115.835938 36.1875 C 115.890625 36.242188 115.9375 36.324219 115.976562 36.425781 C 116.019531 36.527344 116.050781 36.644531 116.074219 36.777344 C 116.09375 36.914062 116.105469 37.050781 116.105469 37.199219 Z M 116.105469 37.199219 "/>
<path style=" stroke:none;fill-rule:nonzero;fill:rgb(0%,29.019609%,67.843139%);fill-opacity:1;" d="M 117.953125 41.867188 C 117.953125 42.015625 117.941406 42.152344 117.917969 42.289062 C 117.894531 42.421875 117.867188 42.539062 117.824219 42.640625 C 117.78125 42.742188 117.734375 42.824219 117.683594 42.878906 C 117.628906 42.9375 117.574219 42.960938 117.515625 42.960938 C 117.457031 42.960938 117.398438 42.9375 117.347656 42.878906 C 117.292969 42.824219 117.246094 42.742188 117.203125 42.640625 C 117.164062 42.539062 117.132812 42.421875 117.109375 42.289062 C 117.085938 42.152344 117.078125 42.015625 117.078125 41.867188 C 117.078125 41.722656 117.085938 41.585938 117.109375 41.449219 C 117.132812 41.316406 117.164062 41.199219 117.203125 41.097656 C 117.246094 40.988281 117.292969 40.914062 117.347656 40.859375 C 117.398438 40.800781 117.457031 40.773438 117.515625 40.773438 C 117.574219 40.773438 117.628906 40.800781 117.683594 40.859375 C 117.734375 40.914062 117.78125 40.988281 117.824219 41.097656 C 117.867188 41.199219 117.894531 41.316406 117.917969 41.449219 C 117.941406 41.585938 117.953125 41.722656 117.953125 41.867188 Z M 117.953125 41.867188 "/>
<path style=" stroke:none;fill-rule:nonzero;fill:rgb(0%,29.019609%,67.843139%);fill-opacity:1;" d="M 121.609375 42.0625 C 121.609375 42.207031 121.597656 42.347656 121.574219 42.480469 C 121.550781 42.617188 121.519531 42.734375 121.480469 42.835938 C 121.4375 42.941406 121.390625 43.015625 121.335938 43.074219 C 121.285156 43.128906 121.226562 43.15625 121.171875 43.15625 C 121.113281 43.15625 121.054688 43.128906 121.003906 43.074219 C 120.949219 43.015625 120.902344 42.941406 120.859375 42.835938 C 120.820312 42.734375 120.789062 42.617188 120.765625 42.480469 C 120.742188 42.347656 120.734375 42.207031 120.734375 42.0625 C 120.734375 41.917969 120.742188 41.777344 120.765625 41.644531 C 120.789062 41.507812 120.820312 41.390625 120.859375 41.289062 C 120.902344 41.1875 120.949219 41.105469 121.003906 41.050781 C 121.054688 40.996094 121.113281 40.96875 121.171875 40.96875 C 121.226562 40.96875 121.285156 40.996094 121.335938 41.050781 C 121.390625 41.105469 121.4375 41.1875 121.480469 41.289062 C 121.519531 41.390625 121.550781 41.507812 121.574219 41.644531 C 121.597656 41.777344 121.609375 41.917969 121.609375 42.0625 Z M 121.609375 42.0625 "/>
<path style=" stroke:none;fill-rule:nonzero;fill:rgb(0%,29.019609%,67.843139%);fill-opacity:1;" d="M 118.03125 50.679688 C 118.03125 50.828125 118.019531 50.964844 118 51.101562 C 117.976562 51.230469 117.945312 51.351562 117.902344 51.453125 C 117.863281 51.554688 117.8125 51.636719 117.761719 51.691406 C 117.707031 51.746094 117.652344 51.773438 117.59375 51.773438 C 117.535156 51.773438 117.480469 51.746094 117.425781 51.691406 C 117.371094 51.636719 117.324219 51.554688 117.285156 51.453125 C 117.242188 51.351562 117.210938 51.230469 117.1875 51.101562 C 117.167969 50.964844 117.15625 50.828125 117.15625 50.679688 C 117.15625 50.535156 117.167969 50.394531 117.1875 50.261719 C 117.210938 50.125 117.242188 50.011719 117.285156 49.902344 C 117.324219 49.800781 117.371094 49.726562 117.425781 49.667969 C 117.480469 49.613281 117.535156 49.582031 117.59375 49.582031 C 117.652344 49.582031 117.707031 49.613281 117.761719 49.667969 C 117.8125 49.726562 117.863281 49.800781 117.902344 49.902344 C 117.945312 50.011719 117.976562 50.125 118 50.261719 C 118.019531 50.394531 118.03125 50.535156 118.03125 50.679688 Z M 118.03125 50.679688 "/>
<path style=" stroke:none;fill-rule:nonzero;fill:rgb(0%,29.019609%,67.843139%);fill-opacity:1;" d="M 114.542969 38.292969 C 114.542969 38.421875 114.535156 38.550781 114.515625 38.671875 C 114.496094 38.792969 114.464844 38.898438 114.429688 38.992188 C 114.394531 39.082031 114.347656 39.15625 114.300781 39.207031 C 114.253906 39.253906 114.203125 39.28125 114.148438 39.28125 C 114.097656 39.28125 114.046875 39.253906 114 39.207031 C 113.949219 39.15625 113.90625 39.082031 113.871094 38.992188 C 113.832031 38.898438 113.804688 38.792969 113.785156 38.671875 C 113.765625 38.550781 113.753906 38.421875 113.753906 38.292969 C 113.753906 38.160156 113.765625 38.035156 113.785156 37.914062 C 113.804688 37.792969 113.832031 37.6875 113.871094 37.59375 C 113.90625 37.5 113.949219 37.429688 114 37.378906 C 114.046875 37.328125 114.097656 37.304688 114.148438 37.304688 C 114.203125 37.304688 114.253906 37.328125 114.300781 37.378906 C 114.347656 37.429688 114.394531 37.5 114.429688 37.59375 C 114.464844 37.6875 114.496094 37.792969 114.515625 37.914062 C 114.535156 38.035156 114.542969 38.160156 114.542969 38.292969 Z M 114.542969 38.292969 "/>
<path style=" stroke:none;fill-rule:nonzero;fill:rgb(0%,29.019609%,67.843139%);fill-opacity:1;" d="M 116.234375 78.464844 L 116.699219 78.464844 L 116.699219 81.734375 L 116.234375 81.734375 Z M 116.234375 78.464844 "/>
<path style=" stroke:none;fill-rule:nonzero;fill:rgb(0%,29.019609%,67.843139%);fill-opacity:1;" d="M 115.695312 78.464844 L 116.160156 78.464844 L 116.160156 81.734375 L 115.695312 81.734375 Z M 115.695312 78.464844 "/>
<path style=" stroke:none;fill-rule:nonzero;fill:rgb(0%,29.019609%,67.843139%);fill-opacity:1;" d="M 115.15625 78.464844 L 115.621094 78.464844 L 115.621094 81.734375 L 115.15625 81.734375 Z M 115.15625 78.464844 "/>
<path style=" stroke:none;fill-rule:nonzero;fill:rgb(0%,29.019609%,67.843139%);fill-opacity:1;" d="M 114.613281 78.464844 L 115.078125 78.464844 L 115.078125 81.734375 L 114.613281 81.734375 Z M 114.613281 78.464844 "/>
<path style=" stroke:none;fill-rule:nonzero;fill:rgb(0%,29.019609%,67.843139%);fill-opacity:1;" d="M 114.074219 78.464844 L 114.539062 78.464844 L 114.539062 81.734375 L 114.074219 81.734375 Z M 114.074219 78.464844 "/>
<path style=" stroke:none;fill-rule:nonzero;fill:rgb(0%,29.019609%,67.843139%);fill-opacity:1;" d="M 113.535156 78.464844 L 114 78.464844 L 114 81.734375 L 113.535156 81.734375 Z M 113.535156 78.464844 "/>
<path style=" stroke:none;fill-rule:nonzero;fill:rgb(0%,29.019609%,67.843139%);fill-opacity:1;" d="M 112.996094 78.464844 L 113.460938 78.464844 L 113.460938 81.734375 L 112.996094 81.734375 Z M 112.996094 78.464844 "/>
<path style=" stroke:none;fill-rule:nonzero;fill:rgb(0%,29.019609%,67.843139%);fill-opacity:1;" d="M 112.453125 78.464844 L 112.921875 78.464844 L 112.921875 81.734375 L 112.453125 81.734375 Z M 112.453125 78.464844 "/>
<path style=" stroke:none;fill-rule:nonzero;fill:rgb(0%,29.019609%,67.843139%);fill-opacity:1;" d="M 111.914062 78.464844 L 112.378906 78.464844 L 112.378906 81.734375 L 111.914062 81.734375 Z M 111.914062 78.464844 "/>
<path style=" stroke:none;fill-rule:nonzero;fill:rgb(0%,29.019609%,67.843139%);fill-opacity:1;" d="M 111.375 78.464844 L 111.839844 78.464844 L 111.839844 81.734375 L 111.375 81.734375 Z M 111.375 78.464844 "/>
<path style=" stroke:none;fill-rule:nonzero;fill:rgb(0%,29.019609%,67.843139%);fill-opacity:1;" d="M 110.835938 78.464844 L 111.300781 78.464844 L 111.300781 81.734375 L 110.835938 81.734375 Z M 110.835938 78.464844 "/>
<path style=" stroke:none;fill-rule:nonzero;fill:rgb(0%,29.019609%,67.843139%);fill-opacity:1;" d="M 110.296875 78.464844 L 110.761719 78.464844 L 110.761719 81.734375 L 110.296875 81.734375 Z M 110.296875 78.464844 "/>
<path style=" stroke:none;fill-rule:nonzero;fill:rgb(0%,29.019609%,67.843139%);fill-opacity:1;" d="M 109.753906 78.464844 L 110.222656 78.464844 L 110.222656 81.734375 L 109.753906 81.734375 Z M 109.753906 78.464844 "/>
<path style=" stroke:none;fill-rule:nonzero;fill:rgb(0%,29.019609%,67.843139%);fill-opacity:1;" d="M 118.171875 87.035156 L 117.199219 87.035156 L 116.402344 85.046875 L 116.402344 80.199219 L 116.53125 80.199219 L 116.53125 84.914062 L 117.253906 86.71875 L 118.121094 86.71875 L 118.363281 86.105469 L 120.777344 86.105469 L 120.777344 86.429688 L 118.417969 86.429688 Z M 118.171875 87.035156 "/>
<path style=" stroke:none;fill-rule:nonzero;fill:rgb(0%,29.019609%,67.843139%);fill-opacity:1;" d="M 120.777344 90.53125 L 119.988281 90.53125 L 119.058594 88.214844 L 116.921875 88.214844 L 115.847656 85.53125 L 115.847656 79.976562 L 115.976562 79.976562 L 115.976562 85.398438 L 116.972656 87.898438 L 119.113281 87.898438 L 120.039062 90.210938 L 120.777344 90.210938 Z M 120.777344 90.53125 "/>
<path style=" stroke:none;fill-rule:nonzero;fill:rgb(0%,29.019609%,67.843139%);fill-opacity:1;" d="M 120.046875 94.199219 L 119.1875 92.039062 L 118.25 92.039062 L 117.535156 90.257812 L 116.871094 90.257812 L 115.300781 86.328125 L 115.300781 80.101562 L 115.425781 80.101562 L 115.425781 86.195312 L 116.921875 89.933594 L 117.589844 89.933594 L 118.304688 91.722656 L 119.238281 91.722656 L 120.140625 93.972656 Z M 120.046875 94.199219 "/>
<path style=" stroke:none;fill-rule:nonzero;fill:rgb(0%,29.019609%,67.843139%);fill-opacity:1;" d="M 117.164062 98.34375 L 117.039062 98.34375 L 117.039062 95.164062 L 116.339844 93.421875 L 116.339844 91.078125 L 114.78125 87.171875 L 114.78125 80.484375 L 114.90625 80.484375 L 114.90625 87.035156 L 116.46875 90.945312 L 116.46875 93.289062 L 117.164062 95.03125 Z M 117.164062 98.34375 "/>
<path style=" stroke:none;fill-rule:nonzero;fill:rgb(0%,29.019609%,67.843139%);fill-opacity:1;" d="M 116.320312 101.609375 L 116.191406 101.609375 L 116.191406 96.203125 L 115.707031 94.988281 L 115.707031 91.914062 L 114.226562 88.21875 L 114.242188 80.484375 L 114.371094 80.484375 L 114.355469 88.082031 L 115.832031 91.785156 L 115.832031 94.855469 L 116.320312 96.070312 Z M 116.320312 101.609375 "/>
<path style=" stroke:none;fill-rule:nonzero;fill:rgb(0%,29.019609%,67.843139%);fill-opacity:1;" d="M 113.703125 80.484375 L 113.832031 80.484375 L 113.832031 88.800781 L 113.703125 88.800781 Z M 113.703125 80.484375 "/>
<path style=" stroke:none;fill-rule:nonzero;fill:rgb(0%,29.019609%,67.843139%);fill-opacity:1;" d="M 114.101562 95.789062 L 113.972656 95.789062 L 113.972656 94.636719 L 113.175781 92.636719 L 113.175781 80.484375 L 113.300781 80.484375 L 113.300781 92.503906 L 114.101562 94.5 Z M 114.101562 95.789062 "/>
<path style=" stroke:none;fill-rule:nonzero;fill:rgb(0%,29.019609%,67.843139%);fill-opacity:1;" d="M 112.355469 97.488281 L 111.851562 96.226562 L 111.851562 94.609375 L 112.613281 92.699219 L 112.613281 80.921875 L 112.742188 80.921875 L 112.742188 92.832031 L 111.976562 94.746094 L 111.976562 96.097656 L 112.441406 97.261719 Z M 112.355469 97.488281 "/>
<path style=" stroke:none;fill-rule:nonzero;fill:rgb(0%,29.019609%,67.843139%);fill-opacity:1;" d="M 112.023438 101.609375 L 111.894531 101.609375 L 111.894531 98.28125 L 111.019531 96.09375 L 111.019531 91.527344 L 112.097656 88.839844 L 112.097656 80.59375 L 112.222656 80.59375 L 112.222656 88.96875 L 111.148438 91.660156 L 111.148438 95.960938 L 112.023438 98.148438 Z M 112.023438 101.609375 "/>
<path style=" stroke:none;fill-rule:nonzero;fill:rgb(0%,29.019609%,67.843139%);fill-opacity:1;" d="M 110.832031 98.457031 L 110.320312 97.179688 L 110.320312 90.070312 L 111.554688 86.980469 L 111.554688 80.484375 L 111.679688 80.484375 L 111.679688 87.113281 L 110.445312 90.203125 L 110.445312 97.042969 L 110.917969 98.230469 Z M 110.832031 98.457031 "/>
<g clip-path="url(#clip11)" clip-rule="nonzero">
<path style=" stroke:none;fill-rule:nonzero;fill:rgb(0%,29.019609%,67.843139%);fill-opacity:1;" d="M 109.015625 93.785156 L 108.925781 93.558594 L 109.65625 91.726562 L 109.65625 88.875 L 111.007812 85.5 L 111.007812 81.058594 L 111.136719 81.058594 L 111.136719 85.628906 L 109.785156 89.003906 L 109.785156 91.855469 Z M 109.015625 93.785156 "/>
</g>
<g clip-path="url(#clip12)" clip-rule="nonzero">
<path style=" stroke:none;fill-rule:nonzero;fill:rgb(0%,29.019609%,67.843139%);fill-opacity:1;" d="M 105.789062 93.699219 L 105.28125 93.699219 L 105.28125 93.378906 L 105.738281 93.378906 L 106.25 92.101562 L 106.25 89.082031 L 107.160156 86.808594 L 109.480469 86.808594 L 110.464844 84.34375 L 110.464844 80.59375 L 110.59375 80.59375 L 110.59375 84.472656 L 109.535156 87.125 L 107.210938 87.125 L 106.375 89.21875 L 106.375 92.234375 Z M 105.789062 93.699219 "/>
</g>
<g clip-path="url(#clip13)" clip-rule="nonzero">
<path style=" stroke:none;fill-rule:nonzero;fill:rgb(0%,29.019609%,67.843139%);fill-opacity:1;" d="M 109.472656 85.019531 L 108.925781 85.019531 L 108.925781 84.703125 L 109.417969 84.703125 L 109.9375 83.40625 L 109.9375 80.679688 L 110.066406 80.679688 L 110.066406 83.535156 Z M 109.472656 85.019531 "/>
</g>
<path style=" stroke:none;fill-rule:nonzero;fill:rgb(0%,29.019609%,67.843139%);fill-opacity:1;" d="M 121.222656 86.246094 C 121.222656 86.390625 121.214844 86.53125 121.191406 86.664062 C 121.167969 86.800781 121.136719 86.917969 121.097656 87.019531 C 121.054688 87.125 121.007812 87.199219 120.953125 87.257812 C 120.898438 87.3125 120.84375 87.339844 120.785156 87.339844 C 120.726562 87.339844 120.671875 87.3125 120.617188 87.257812 C 120.566406 87.199219 120.519531 87.125 120.476562 87.019531 C 120.4375 86.917969 120.40625 86.800781 120.382812 86.664062 C 120.359375 86.53125 120.347656 86.390625 120.347656 86.246094 C 120.347656 86.101562 120.359375 85.960938 120.382812 85.828125 C 120.40625 85.695312 120.4375 85.574219 120.476562 85.472656 C 120.519531 85.371094 120.566406 85.289062 120.617188 85.234375 C 120.671875 85.179688 120.726562 85.152344 120.785156 85.152344 C 120.84375 85.152344 120.898438 85.179688 120.953125 85.234375 C 121.007812 85.289062 121.054688 85.371094 121.097656 85.472656 C 121.136719 85.574219 121.167969 85.695312 121.191406 85.828125 C 121.214844 85.960938 121.222656 86.101562 121.222656 86.246094 Z M 121.222656 86.246094 "/>
<path style=" stroke:none;fill-rule:nonzero;fill:rgb(0%,29.019609%,67.843139%);fill-opacity:1;" d="M 121.21875 90.371094 C 121.21875 90.519531 121.207031 90.65625 121.183594 90.792969 C 121.160156 90.921875 121.128906 91.042969 121.089844 91.144531 C 121.046875 91.246094 121 91.328125 120.945312 91.382812 C 120.894531 91.4375 120.835938 91.464844 120.777344 91.464844 C 120.722656 91.464844 120.664062 91.4375 120.613281 91.382812 C 120.558594 91.328125 120.511719 91.246094 120.46875 91.144531 C 120.429688 91.042969 120.398438 90.921875 120.375 90.792969 C 120.351562 90.65625 120.339844 90.519531 120.339844 90.371094 C 120.339844 90.226562 120.351562 90.089844 120.375 89.953125 C 120.398438 89.820312 120.429688 89.703125 120.46875 89.597656 C 120.511719 89.496094 120.558594 89.417969 120.613281 89.359375 C 120.664062 89.304688 120.722656 89.277344 120.777344 89.277344 C 120.835938 89.277344 120.894531 89.304688 120.945312 89.359375 C 121 89.417969 121.046875 89.496094 121.089844 89.597656 C 121.128906 89.703125 121.160156 89.820312 121.183594 89.953125 C 121.207031 90.089844 121.21875 90.226562 121.21875 90.371094 Z M 121.21875 90.371094 "/>
<path style=" stroke:none;fill-rule:nonzero;fill:rgb(0%,29.019609%,67.843139%);fill-opacity:1;" d="M 120.53125 94 C 120.53125 94.144531 120.519531 94.289062 120.496094 94.417969 C 120.476562 94.554688 120.445312 94.675781 120.402344 94.777344 C 120.363281 94.878906 120.316406 94.960938 120.261719 95.015625 C 120.207031 95.070312 120.152344 95.097656 120.09375 95.097656 C 120.035156 95.097656 119.980469 95.070312 119.925781 95.015625 C 119.871094 94.960938 119.824219 94.878906 119.785156 94.777344 C 119.742188 94.675781 119.710938 94.554688 119.691406 94.417969 C 119.667969 94.289062 119.65625 94.144531 119.65625 94 C 119.65625 93.859375 119.667969 93.714844 119.691406 93.585938 C 119.710938 93.449219 119.742188 93.328125 119.785156 93.226562 C 119.824219 93.125 119.871094 93.046875 119.925781 92.992188 C 119.980469 92.9375 120.035156 92.90625 120.09375 92.90625 C 120.152344 92.90625 120.207031 92.9375 120.261719 92.992188 C 120.316406 93.046875 120.363281 93.125 120.402344 93.226562 C 120.445312 93.328125 120.476562 93.449219 120.496094 93.585938 C 120.519531 93.714844 120.53125 93.859375 120.53125 94 Z M 120.53125 94 "/>
<path style=" stroke:none;fill-rule:nonzero;fill:rgb(0%,29.019609%,67.843139%);fill-opacity:1;" d="M 117.539062 98.34375 C 117.539062 98.488281 117.527344 98.628906 117.507812 98.761719 C 117.484375 98.898438 117.453125 99.011719 117.410156 99.121094 C 117.371094 99.222656 117.324219 99.296875 117.269531 99.355469 C 117.214844 99.410156 117.160156 99.441406 117.101562 99.441406 C 117.042969 99.441406 116.988281 99.410156 116.933594 99.355469 C 116.882812 99.296875 116.832031 99.222656 116.792969 99.121094 C 116.75 99.011719 116.71875 98.898438 116.699219 98.761719 C 116.675781 98.628906 116.664062 98.488281 116.664062 98.34375 C 116.664062 98.195312 116.675781 98.058594 116.699219 97.921875 C 116.71875 97.792969 116.75 97.671875 116.792969 97.570312 C 116.832031 97.46875 116.882812 97.386719 116.933594 97.332031 C 116.988281 97.277344 117.042969 97.25 117.101562 97.25 C 117.160156 97.25 117.214844 97.277344 117.269531 97.332031 C 117.324219 97.386719 117.371094 97.46875 117.410156 97.570312 C 117.453125 97.671875 117.484375 97.792969 117.507812 97.921875 C 117.527344 98.058594 117.539062 98.195312 117.539062 98.34375 Z M 117.539062 98.34375 "/>
<g clip-path="url(#clip14)" clip-rule="nonzero">
<path style=" stroke:none;fill-rule:nonzero;fill:rgb(0%,29.019609%,67.843139%);fill-opacity:1;" d="M 116.691406 101.609375 C 116.691406 101.753906 116.683594 101.894531 116.660156 102.027344 C 116.636719 102.164062 116.605469 102.28125 116.566406 102.382812 C 116.523438 102.484375 116.476562 102.566406 116.421875 102.621094 C 116.371094 102.675781 116.3125 102.703125 116.253906 102.703125 C 116.195312 102.703125 116.140625 102.675781 116.085938 102.621094 C 116.035156 102.566406 115.988281 102.484375 115.945312 102.382812 C 115.90625 102.28125 115.875 102.164062 115.851562 102.027344 C 115.828125 101.894531 115.816406 101.753906 115.816406 101.609375 C 115.816406 101.464844 115.828125 101.324219 115.851562 101.191406 C 115.875 101.054688 115.90625 100.9375 115.945312 100.835938 C 115.988281 100.730469 116.035156 100.652344 116.085938 100.597656 C 116.140625 100.542969 116.195312 100.515625 116.253906 100.515625 C 116.3125 100.515625 116.371094 100.542969 116.421875 100.597656 C 116.476562 100.652344 116.523438 100.730469 116.566406 100.835938 C 116.605469 100.9375 116.636719 101.054688 116.660156 101.191406 C 116.683594 101.324219 116.691406 101.464844 116.691406 101.609375 Z M 116.691406 101.609375 "/>
</g>
<path style=" stroke:none;fill-rule:nonzero;fill:rgb(0%,29.019609%,67.843139%);fill-opacity:1;" d="M 114.511719 95.789062 C 114.511719 95.9375 114.503906 96.074219 114.480469 96.210938 C 114.457031 96.339844 114.425781 96.460938 114.382812 96.5625 C 114.34375 96.664062 114.296875 96.746094 114.242188 96.800781 C 114.1875 96.855469 114.132812 96.882812 114.074219 96.882812 C 114.015625 96.882812 113.960938 96.855469 113.90625 96.800781 C 113.855469 96.746094 113.808594 96.664062 113.765625 96.5625 C 113.726562 96.460938 113.691406 96.339844 113.671875 96.210938 C 113.648438 96.074219 113.636719 95.9375 113.636719 95.789062 C 113.636719 95.644531 113.648438 95.507812 113.671875 95.371094 C 113.691406 95.238281 113.726562 95.121094 113.765625 95.019531 C 113.808594 94.910156 113.855469 94.835938 113.90625 94.777344 C 113.960938 94.722656 114.015625 94.695312 114.074219 94.695312 C 114.132812 94.695312 114.1875 94.722656 114.242188 94.777344 C 114.296875 94.835938 114.34375 94.910156 114.382812 95.019531 C 114.425781 95.121094 114.457031 95.238281 114.480469 95.371094 C 114.503906 95.507812 114.511719 95.644531 114.511719 95.789062 Z M 114.511719 95.789062 "/>
<path style=" stroke:none;fill-rule:nonzero;fill:rgb(0%,29.019609%,67.843139%);fill-opacity:1;" d="M 114.132812 88.457031 C 114.132812 88.710938 114.097656 88.925781 114.027344 89.105469 C 113.957031 89.28125 113.867188 89.375 113.765625 89.375 C 113.667969 89.375 113.582031 89.28125 113.507812 89.105469 C 113.4375 88.925781 113.402344 88.710938 113.402344 88.457031 C 113.402344 88.203125 113.4375 87.988281 113.507812 87.808594 C 113.582031 87.632812 113.667969 87.539062 113.765625 87.539062 C 113.867188 87.539062 113.957031 87.632812 114.027344 87.808594 C 114.097656 87.988281 114.132812 88.203125 114.132812 88.457031 Z M 114.132812 88.457031 "/>
<g clip-path="url(#clip15)" clip-rule="nonzero">
<path style=" stroke:none;fill-rule:nonzero;fill:rgb(0%,29.019609%,67.843139%);fill-opacity:1;" d="M 112.410156 101.609375 C 112.410156 101.753906 112.402344 101.894531 112.378906 102.027344 C 112.355469 102.164062 112.324219 102.28125 112.28125 102.382812 C 112.242188 102.484375 112.195312 102.566406 112.140625 102.621094 C 112.085938 102.675781 112.03125 102.703125 111.972656 102.703125 C 111.914062 102.703125 111.859375 102.675781 111.804688 102.621094 C 111.753906 102.566406 111.707031 102.484375 111.664062 102.382812 C 111.625 102.28125 111.589844 102.164062 111.570312 102.027344 C 111.546875 101.894531 111.535156 101.753906 111.535156 101.609375 C 111.535156 101.464844 111.546875 101.324219 111.570312 101.191406 C 111.589844 101.054688 111.625 100.9375 111.664062 100.835938 C 111.707031 100.730469 111.753906 100.652344 111.804688 100.597656 C 111.859375 100.542969 111.914062 100.515625 111.972656 100.515625 C 112.03125 100.515625 112.085938 100.542969 112.140625 100.597656 C 112.195312 100.652344 112.242188 100.730469 112.28125 100.835938 C 112.324219 100.9375 112.355469 101.054688 112.378906 101.191406 C 112.402344 101.324219 112.410156 101.464844 112.410156 101.609375 Z M 112.410156 101.609375 "/>
</g>
<path style=" stroke:none;fill-rule:nonzero;fill:rgb(0%,29.019609%,67.843139%);fill-opacity:1;" d="M 111.289062 98.34375 C 111.289062 98.488281 111.277344 98.628906 111.253906 98.761719 C 111.234375 98.898438 111.199219 99.011719 111.160156 99.121094 C 111.121094 99.222656 111.070312 99.296875 111.015625 99.355469 C 110.964844 99.410156 110.90625 99.441406 110.851562 99.441406 C 110.792969 99.441406 110.734375 99.410156 110.683594 99.355469 C 110.628906 99.296875 110.582031 99.222656 110.539062 99.121094 C 110.5 99.011719 110.46875 98.898438 110.445312 98.761719 C 110.421875 98.628906 110.410156 98.488281 110.410156 98.34375 C 110.410156 98.195312 110.421875 98.058594 110.445312 97.921875 C 110.46875 97.792969 110.5 97.671875 110.539062 97.570312 C 110.582031 97.46875 110.628906 97.386719 110.683594 97.332031 C 110.734375 97.277344 110.792969 97.25 110.851562 97.25 C 110.90625 97.25 110.964844 97.277344 111.015625 97.332031 C 111.070312 97.386719 111.121094 97.46875 111.160156 97.570312 C 111.199219 97.671875 111.234375 97.792969 111.253906 97.921875 C 111.277344 98.058594 111.289062 98.195312 111.289062 98.34375 Z M 111.289062 98.34375 "/>
<g clip-path="url(#clip16)" clip-rule="nonzero">
<path style=" stroke:none;fill-rule:nonzero;fill:rgb(0%,29.019609%,67.843139%);fill-opacity:1;" d="M 109.441406 93.671875 C 109.441406 93.816406 109.429688 93.957031 109.410156 94.089844 C 109.386719 94.226562 109.355469 94.34375 109.3125 94.449219 C 109.273438 94.550781 109.226562 94.628906 109.171875 94.6875 C 109.117188 94.742188 109.0625 94.769531 109.003906 94.769531 C 108.945312 94.769531 108.890625 94.742188 108.835938 94.6875 C 108.78125 94.628906 108.734375 94.550781 108.695312 94.449219 C 108.652344 94.34375 108.621094 94.226562 108.597656 94.089844 C 108.578125 93.957031 108.566406 93.816406 108.566406 93.671875 C 108.566406 93.53125 108.578125 93.386719 108.597656 93.253906 C 108.621094 93.121094 108.652344 93 108.695312 92.898438 C 108.734375 92.796875 108.78125 92.71875 108.835938 92.664062 C 108.890625 92.609375 108.945312 92.578125 109.003906 92.578125 C 109.0625 92.578125 109.117188 92.609375 109.171875 92.664062 C 109.226562 92.71875 109.273438 92.796875 109.3125 92.898438 C 109.355469 93 109.386719 93.121094 109.410156 93.253906 C 109.429688 93.386719 109.441406 93.53125 109.441406 93.671875 Z M 109.441406 93.671875 "/>
</g>
<g clip-path="url(#clip17)" clip-rule="nonzero">
<path style=" stroke:none;fill-rule:nonzero;fill:rgb(0%,29.019609%,67.843139%);fill-opacity:1;" d="M 109.363281 84.863281 C 109.363281 85.007812 109.351562 85.148438 109.328125 85.28125 C 109.304688 85.414062 109.273438 85.535156 109.234375 85.636719 C 109.191406 85.738281 109.144531 85.820312 109.09375 85.875 C 109.039062 85.929688 108.984375 85.957031 108.925781 85.957031 C 108.867188 85.957031 108.8125 85.929688 108.757812 85.875 C 108.703125 85.820312 108.65625 85.738281 108.613281 85.636719 C 108.574219 85.535156 108.542969 85.414062 108.519531 85.28125 C 108.496094 85.148438 108.488281 85.007812 108.488281 84.863281 C 108.488281 84.71875 108.496094 84.574219 108.519531 84.445312 C 108.542969 84.308594 108.574219 84.191406 108.613281 84.085938 C 108.65625 83.984375 108.703125 83.90625 108.757812 83.851562 C 108.8125 83.796875 108.867188 83.765625 108.925781 83.765625 C 108.984375 83.765625 109.039062 83.796875 109.09375 83.851562 C 109.144531 83.90625 109.191406 83.984375 109.234375 84.085938 C 109.273438 84.191406 109.304688 84.308594 109.328125 84.445312 C 109.351562 84.574219 109.363281 84.71875 109.363281 84.863281 Z M 109.363281 84.863281 "/>
</g>
<path style=" stroke:none;fill-rule:nonzero;fill:rgb(0%,29.019609%,67.843139%);fill-opacity:1;" d="M 112.761719 97.25 C 112.761719 97.378906 112.753906 97.507812 112.734375 97.628906 C 112.714844 97.75 112.683594 97.855469 112.648438 97.949219 C 112.609375 98.039062 112.566406 98.113281 112.519531 98.164062 C 112.472656 98.210938 112.421875 98.238281 112.367188 98.238281 C 112.316406 98.238281 112.265625 98.210938 112.21875 98.164062 C 112.167969 98.113281 112.125 98.039062 112.089844 97.949219 C 112.050781 97.855469 112.023438 97.75 112.003906 97.628906 C 111.984375 97.507812 111.972656 97.378906 111.972656 97.25 C 111.972656 97.117188 111.984375 96.992188 112.003906 96.871094 C 112.023438 96.75 112.050781 96.644531 112.089844 96.550781 C 112.125 96.457031 112.167969 96.386719 112.21875 96.335938 C 112.265625 96.285156 112.316406 96.261719 112.367188 96.261719 C 112.421875 96.261719 112.472656 96.285156 112.519531 96.335938 C 112.566406 96.386719 112.609375 96.457031 112.648438 96.550781 C 112.683594 96.644531 112.714844 96.75 112.734375 96.871094 C 112.753906 96.992188 112.761719 97.117188 112.761719 97.25 Z M 112.761719 97.25 "/>
<path style=" stroke:none;fill-rule:nonzero;fill:rgb(0%,29.019609%,67.843139%);fill-opacity:1;" d="M 117.648438 59.171875 L 118.957031 59.171875 L 118.957031 60.335938 L 117.648438 60.335938 Z M 117.648438 59.171875 "/>
<path style=" stroke:none;fill-rule:nonzero;fill:rgb(0%,29.019609%,67.843139%);fill-opacity:1;" d="M 117.648438 60.519531 L 118.957031 60.519531 L 118.957031 61.683594 L 117.648438 61.683594 Z M 117.648438 60.519531 "/>
<path style=" stroke:none;fill-rule:nonzero;fill:rgb(0%,29.019609%,67.843139%);fill-opacity:1;" d="M 117.648438 61.871094 L 118.957031 61.871094 L 118.957031 63.03125 L 117.648438 63.03125 Z M 117.648438 61.871094 "/>
<path style=" stroke:none;fill-rule:nonzero;fill:rgb(0%,29.019609%,67.843139%);fill-opacity:1;" d="M 117.648438 63.222656 L 118.957031 63.222656 L 118.957031 64.382812 L 117.648438 64.382812 Z M 117.648438 63.222656 "/>
<path style=" stroke:none;fill-rule:nonzero;fill:rgb(0%,29.019609%,67.843139%);fill-opacity:1;" d="M 117.648438 64.570312 L 118.957031 64.570312 L 118.957031 65.734375 L 117.648438 65.734375 Z M 117.648438 64.570312 "/>
<path style=" stroke:none;fill-rule:nonzero;fill:rgb(0%,29.019609%,67.843139%);fill-opacity:1;" d="M 117.648438 65.921875 L 118.957031 65.921875 L 118.957031 67.082031 L 117.648438 67.082031 Z M 117.648438 65.921875 "/>
<path style=" stroke:none;fill-rule:nonzero;fill:rgb(0%,29.019609%,67.843139%);fill-opacity:1;" d="M 117.648438 67.273438 L 118.957031 67.273438 L 118.957031 68.433594 L 117.648438 68.433594 Z M 117.648438 67.273438 "/>
<path style=" stroke:none;fill-rule:nonzero;fill:rgb(0%,29.019609%,67.843139%);fill-opacity:1;" d="M 117.648438 68.621094 L 118.957031 68.621094 L 118.957031 69.78125 L 117.648438 69.78125 Z M 117.648438 68.621094 "/>
<path style=" stroke:none;fill-rule:nonzero;fill:rgb(0%,29.019609%,67.843139%);fill-opacity:1;" d="M 117.648438 69.972656 L 118.957031 69.972656 L 118.957031 71.132812 L 117.648438 71.132812 Z M 117.648438 69.972656 "/>
<path style=" stroke:none;fill-rule:nonzero;fill:rgb(0%,29.019609%,67.843139%);fill-opacity:1;" d="M 117.648438 71.320312 L 118.957031 71.320312 L 118.957031 72.484375 L 117.648438 72.484375 Z M 117.648438 71.320312 "/>
<path style=" stroke:none;fill-rule:nonzero;fill:rgb(0%,29.019609%,67.843139%);fill-opacity:1;" d="M 117.648438 72.671875 L 118.957031 72.671875 L 118.957031 73.832031 L 117.648438 73.832031 Z M 117.648438 72.671875 "/>
<path style=" stroke:none;fill-rule:nonzero;fill:rgb(0%,29.019609%,67.843139%);fill-opacity:1;" d="M 117.648438 74.019531 L 118.957031 74.019531 L 118.957031 75.183594 L 117.648438 75.183594 Z M 117.648438 74.019531 "/>
<path style=" stroke:none;fill-rule:nonzero;fill:rgb(0%,29.019609%,67.843139%);fill-opacity:1;" d="M 117.648438 75.371094 L 118.957031 75.371094 L 118.957031 76.535156 L 117.648438 76.535156 Z M 117.648438 75.371094 "/>
<path style=" stroke:none;fill-rule:nonzero;fill:rgb(0%,29.019609%,67.843139%);fill-opacity:1;" d="M 120.28125 59.910156 L 118.34375 59.910156 L 118.34375 59.59375 L 120.230469 59.59375 L 120.953125 57.789062 L 120.953125 55.625 L 120.707031 55.011719 L 120.707031 48.972656 L 120.832031 48.972656 L 120.832031 54.878906 L 121.078125 55.492188 L 121.078125 57.921875 Z M 120.28125 59.910156 "/>
<path style=" stroke:none;fill-rule:nonzero;fill:rgb(0%,29.019609%,67.843139%);fill-opacity:1;" d="M 120.476562 61.296875 L 118.253906 61.296875 L 118.253906 60.980469 L 120.421875 60.980469 L 121.421875 58.484375 L 121.421875 53.136719 L 122.347656 50.824219 L 122.347656 48.972656 L 122.476562 48.972656 L 122.476562 50.953125 L 121.550781 53.269531 L 121.550781 58.613281 Z M 120.476562 61.296875 "/>
<path style=" stroke:none;fill-rule:nonzero;fill:rgb(0%,29.019609%,67.843139%);fill-opacity:1;" d="M 120.792969 62.671875 L 118.304688 62.671875 L 118.304688 62.351562 L 120.742188 62.351562 L 122.238281 58.609375 L 122.238281 56.949219 L 122.953125 55.164062 L 122.953125 52.824219 L 123.851562 50.574219 L 123.941406 50.800781 L 123.078125 52.957031 L 123.078125 55.296875 L 122.363281 57.078125 L 122.363281 58.742188 Z M 120.792969 62.671875 "/>
<path style=" stroke:none;fill-rule:nonzero;fill:rgb(0%,29.019609%,67.843139%);fill-opacity:1;" d="M 121.128906 63.972656 L 118.457031 63.972656 L 118.457031 63.65625 L 121.078125 63.65625 L 122.640625 59.746094 L 123.578125 59.746094 L 124.273438 58.007812 L 125.601562 58.007812 L 125.601562 58.324219 L 124.328125 58.324219 L 123.632812 60.070312 L 122.695312 60.070312 Z M 121.128906 63.972656 "/>
<path style=" stroke:none;fill-rule:nonzero;fill:rgb(0%,29.019609%,67.843139%);fill-opacity:1;" d="M 121.550781 65.355469 L 118.457031 65.316406 L 118.457031 64.996094 L 121.496094 65.035156 L 122.976562 61.335938 L 124.207031 61.335938 L 124.691406 60.125 L 126.90625 60.125 L 126.90625 60.441406 L 124.746094 60.441406 L 124.257812 61.65625 L 123.03125 61.65625 Z M 121.550781 65.355469 "/>
<path style=" stroke:none;fill-rule:nonzero;fill:rgb(0%,29.019609%,67.843139%);fill-opacity:1;" d="M 118.457031 66.34375 L 121.785156 66.34375 L 121.785156 66.660156 L 118.457031 66.660156 Z M 118.457031 66.34375 "/>
<path style=" stroke:none;fill-rule:nonzero;fill:rgb(0%,29.019609%,67.843139%);fill-opacity:1;" d="M 123.316406 67.984375 L 118.457031 67.984375 L 118.457031 67.667969 L 123.265625 67.667969 L 124.0625 65.667969 L 124.578125 65.667969 L 124.578125 65.984375 L 124.117188 65.984375 Z M 123.316406 67.984375 "/>
<path style=" stroke:none;fill-rule:nonzero;fill:rgb(0%,29.019609%,67.843139%);fill-opacity:1;" d="M 124.753906 71.296875 L 124.105469 71.296875 L 123.34375 69.386719 L 118.632812 69.386719 L 118.632812 69.066406 L 123.394531 69.066406 L 124.160156 70.976562 L 124.703125 70.976562 L 125.167969 69.808594 L 125.257812 70.035156 Z M 124.753906 71.296875 "/>
<path style=" stroke:none;fill-rule:nonzero;fill:rgb(0%,29.019609%,67.843139%);fill-opacity:1;" d="M 124.699219 73.371094 L 122.875 73.371094 L 121.796875 70.679688 L 118.5 70.679688 L 118.5 70.359375 L 121.851562 70.359375 L 122.925781 73.050781 L 124.648438 73.050781 L 125.523438 70.863281 L 126.90625 70.863281 L 126.90625 71.179688 L 125.574219 71.179688 Z M 124.699219 73.371094 "/>
<path style=" stroke:none;fill-rule:nonzero;fill:rgb(0%,29.019609%,67.843139%);fill-opacity:1;" d="M 125.132812 75.125 L 122.289062 75.125 L 121.054688 72.039062 L 118.457031 72.039062 L 118.457031 71.71875 L 121.109375 71.71875 L 122.34375 74.804688 L 125.082031 74.804688 L 125.554688 73.621094 L 125.644531 73.847656 Z M 125.132812 75.125 "/>
<path style=" stroke:none;fill-rule:nonzero;fill:rgb(0%,29.019609%,67.843139%);fill-opacity:1;" d="M 123.6875 78.613281 L 122.953125 76.777344 L 121.8125 76.777344 L 120.460938 73.402344 L 118.6875 73.402344 L 118.6875 73.085938 L 120.515625 73.085938 L 120.535156 73.132812 L 121.867188 76.457031 L 123.007812 76.457031 L 123.777344 78.386719 Z M 123.6875 78.613281 "/>
<path style=" stroke:none;fill-rule:nonzero;fill:rgb(0%,29.019609%,67.843139%);fill-opacity:1;" d="M 123.742188 87.714844 L 123.613281 87.714844 L 123.613281 86.578125 L 123.105469 85.300781 L 121.894531 85.300781 L 120.984375 83.023438 L 120.984375 77.21875 L 120 74.753906 L 118.5 74.753906 L 118.5 74.4375 L 120.054688 74.4375 L 121.113281 77.085938 L 121.113281 82.890625 L 121.949219 84.984375 L 123.15625 84.984375 L 123.742188 86.445312 Z M 123.742188 87.714844 "/>
<path style=" stroke:none;fill-rule:nonzero;fill:rgb(0%,29.019609%,67.843139%);fill-opacity:1;" d="M 120.273438 78.613281 L 120.144531 78.613281 L 120.144531 77.375 L 119.625 76.078125 L 118.535156 76.078125 L 118.535156 75.761719 L 119.679688 75.761719 L 120.273438 77.246094 Z M 120.273438 78.613281 "/>
<path style=" stroke:none;fill-rule:nonzero;fill:rgb(0%,29.019609%,67.843139%);fill-opacity:1;" d="M 121.199219 48.953125 C 121.199219 49.097656 121.1875 49.242188 121.164062 49.371094 C 121.144531 49.507812 121.113281 49.628906 121.070312 49.730469 C 121.03125 49.832031 120.984375 49.910156 120.929688 49.964844 C 120.875 50.019531 120.820312 50.050781 120.761719 50.050781 C 120.703125 50.050781 120.648438 50.019531 120.59375 49.964844 C 120.539062 49.910156 120.492188 49.832031 120.453125 49.730469 C 120.410156 49.628906 120.378906 49.507812 120.359375 49.371094 C 120.335938 49.242188 120.324219 49.097656 120.324219 48.953125 C 120.324219 48.808594 120.335938 48.667969 120.359375 48.535156 C 120.378906 48.402344 120.410156 48.28125 120.453125 48.179688 C 120.492188 48.078125 120.539062 47.996094 120.59375 47.941406 C 120.648438 47.886719 120.703125 47.859375 120.761719 47.859375 C 120.820312 47.859375 120.875 47.886719 120.929688 47.941406 C 120.984375 47.996094 121.03125 48.078125 121.070312 48.179688 C 121.113281 48.28125 121.144531 48.402344 121.164062 48.535156 C 121.1875 48.667969 121.199219 48.808594 121.199219 48.953125 Z M 121.199219 48.953125 "/>
<path style=" stroke:none;fill-rule:nonzero;fill:rgb(0%,29.019609%,67.843139%);fill-opacity:1;" d="M 122.851562 48.972656 C 122.851562 49.117188 122.839844 49.257812 122.816406 49.390625 C 122.792969 49.523438 122.761719 49.644531 122.722656 49.746094 C 122.679688 49.847656 122.632812 49.929688 122.578125 49.984375 C 122.527344 50.039062 122.46875 50.066406 122.414062 50.066406 C 122.355469 50.066406 122.296875 50.039062 122.246094 49.984375 C 122.191406 49.929688 122.144531 49.847656 122.101562 49.746094 C 122.0625 49.644531 122.027344 49.523438 122.007812 49.390625 C 121.984375 49.257812 121.972656 49.117188 121.972656 48.972656 C 121.972656 48.828125 121.984375 48.6875 122.007812 48.554688 C 122.027344 48.421875 122.0625 48.300781 122.101562 48.199219 C 122.144531 48.097656 122.191406 48.015625 122.246094 47.960938 C 122.296875 47.90625 122.355469 47.878906 122.414062 47.878906 C 122.46875 47.878906 122.527344 47.90625 122.578125 47.960938 C 122.632812 48.015625 122.679688 48.097656 122.722656 48.199219 C 122.761719 48.300781 122.792969 48.421875 122.816406 48.554688 C 122.839844 48.6875 122.851562 48.828125 122.851562 48.972656 Z M 122.851562 48.972656 "/>
<path style=" stroke:none;fill-rule:nonzero;fill:rgb(0%,29.019609%,67.843139%);fill-opacity:1;" d="M 124.300781 50.6875 C 124.300781 50.832031 124.289062 50.972656 124.269531 51.105469 C 124.246094 51.238281 124.214844 51.359375 124.175781 51.460938 C 124.132812 51.5625 124.085938 51.644531 124.03125 51.699219 C 123.976562 51.753906 123.921875 51.78125 123.863281 51.78125 C 123.804688 51.78125 123.75 51.753906 123.695312 51.699219 C 123.644531 51.644531 123.59375 51.5625 123.554688 51.460938 C 123.511719 51.359375 123.480469 51.238281 123.460938 51.105469 C 123.4375 50.972656 123.425781 50.832031 123.425781 50.6875 C 123.425781 50.542969 123.4375 50.402344 123.460938 50.269531 C 123.480469 50.132812 123.511719 50.015625 123.554688 49.910156 C 123.59375 49.808594 123.644531 49.734375 123.695312 49.675781 C 123.75 49.621094 123.804688 49.59375 123.863281 49.59375 C 123.921875 49.59375 123.976562 49.621094 124.03125 49.675781 C 124.085938 49.734375 124.132812 49.808594 124.175781 49.910156 C 124.214844 50.015625 124.246094 50.132812 124.269531 50.269531 C 124.289062 50.402344 124.300781 50.542969 124.300781 50.6875 Z M 124.300781 50.6875 "/>
<path style=" stroke:none;fill-rule:nonzero;fill:rgb(0%,29.019609%,67.843139%);fill-opacity:1;" d="M 126.039062 58.164062 C 126.039062 58.3125 126.027344 58.449219 126.003906 58.585938 C 125.984375 58.71875 125.953125 58.835938 125.910156 58.941406 C 125.867188 59.042969 125.820312 59.121094 125.769531 59.179688 C 125.714844 59.234375 125.660156 59.261719 125.601562 59.261719 C 125.542969 59.261719 125.488281 59.234375 125.433594 59.179688 C 125.378906 59.121094 125.332031 59.042969 125.292969 58.941406 C 125.25 58.835938 125.21875 58.71875 125.195312 58.585938 C 125.171875 58.449219 125.164062 58.3125 125.164062 58.164062 C 125.164062 58.019531 125.171875 57.882812 125.195312 57.746094 C 125.21875 57.613281 125.25 57.496094 125.292969 57.394531 C 125.332031 57.289062 125.378906 57.210938 125.433594 57.15625 C 125.488281 57.101562 125.542969 57.070312 125.601562 57.070312 C 125.660156 57.070312 125.714844 57.101562 125.769531 57.15625 C 125.820312 57.210938 125.867188 57.289062 125.910156 57.394531 C 125.953125 57.496094 125.984375 57.613281 126.003906 57.746094 C 126.027344 57.882812 126.039062 58.019531 126.039062 58.164062 Z M 126.039062 58.164062 "/>
<g clip-path="url(#clip18)" clip-rule="nonzero">
<path style=" stroke:none;fill-rule:nonzero;fill:rgb(0%,29.019609%,67.843139%);fill-opacity:1;" d="M 127.34375 60.285156 C 127.34375 60.429688 127.332031 60.566406 127.3125 60.703125 C 127.289062 60.835938 127.257812 60.953125 127.214844 61.058594 C 127.175781 61.160156 127.128906 61.238281 127.074219 61.292969 C 127.019531 61.347656 126.964844 61.378906 126.90625 61.378906 C 126.847656 61.378906 126.792969 61.347656 126.738281 61.292969 C 126.683594 61.238281 126.640625 61.160156 126.597656 61.058594 C 126.554688 60.953125 126.523438 60.835938 126.5 60.703125 C 126.480469 60.566406 126.46875 60.429688 126.46875 60.285156 C 126.46875 60.136719 126.480469 60 126.5 59.863281 C 126.523438 59.730469 126.554688 59.613281 126.597656 59.507812 C 126.640625 59.40625 126.683594 59.328125 126.738281 59.269531 C 126.792969 59.214844 126.847656 59.1875 126.90625 59.1875 C 126.964844 59.1875 127.019531 59.214844 127.074219 59.269531 C 127.128906 59.328125 127.175781 59.40625 127.214844 59.507812 C 127.257812 59.613281 127.289062 59.730469 127.3125 59.863281 C 127.332031 60 127.34375 60.136719 127.34375 60.285156 Z M 127.34375 60.285156 "/>
</g>
<path style=" stroke:none;fill-rule:nonzero;fill:rgb(0%,29.019609%,67.843139%);fill-opacity:1;" d="M 125.015625 65.734375 C 125.015625 65.875 125.003906 66.019531 124.984375 66.148438 C 124.960938 66.285156 124.929688 66.40625 124.890625 66.507812 C 124.847656 66.609375 124.800781 66.691406 124.746094 66.746094 C 124.691406 66.800781 124.636719 66.828125 124.578125 66.828125 C 124.519531 66.828125 124.464844 66.800781 124.410156 66.746094 C 124.359375 66.691406 124.308594 66.609375 124.269531 66.507812 C 124.226562 66.40625 124.195312 66.285156 124.175781 66.148438 C 124.152344 66.019531 124.140625 65.875 124.140625 65.734375 C 124.140625 65.589844 124.152344 65.445312 124.175781 65.316406 C 124.195312 65.179688 124.226562 65.058594 124.269531 64.957031 C 124.308594 64.855469 124.359375 64.777344 124.410156 64.722656 C 124.464844 64.667969 124.519531 64.636719 124.578125 64.636719 C 124.636719 64.636719 124.691406 64.667969 124.746094 64.722656 C 124.800781 64.777344 124.847656 64.855469 124.890625 64.957031 C 124.929688 65.058594 124.960938 65.179688 124.984375 65.316406 C 125.003906 65.445312 125.015625 65.589844 125.015625 65.734375 Z M 125.015625 65.734375 "/>
<path style=" stroke:none;fill-rule:nonzero;fill:rgb(0%,29.019609%,67.843139%);fill-opacity:1;" d="M 122.011719 66.503906 C 122.011719 66.753906 121.976562 66.96875 121.90625 67.148438 C 121.832031 67.328125 121.746094 67.417969 121.644531 67.417969 C 121.542969 67.417969 121.457031 67.328125 121.386719 67.148438 C 121.316406 66.96875 121.28125 66.753906 121.28125 66.503906 C 121.28125 66.25 121.316406 66.035156 121.386719 65.855469 C 121.457031 65.675781 121.542969 65.589844 121.644531 65.589844 C 121.746094 65.589844 121.832031 65.675781 121.90625 65.855469 C 121.976562 66.035156 122.011719 66.25 122.011719 66.503906 Z M 122.011719 66.503906 "/>
<g clip-path="url(#clip19)" clip-rule="nonzero">
<path style=" stroke:none;fill-rule:nonzero;fill:rgb(0%,29.019609%,67.843139%);fill-opacity:1;" d="M 127.34375 70.988281 C 127.34375 71.128906 127.332031 71.273438 127.3125 71.402344 C 127.289062 71.539062 127.257812 71.660156 127.214844 71.761719 C 127.175781 71.863281 127.128906 71.941406 127.074219 71.996094 C 127.019531 72.050781 126.964844 72.082031 126.90625 72.082031 C 126.847656 72.082031 126.792969 72.050781 126.738281 71.996094 C 126.683594 71.941406 126.640625 71.863281 126.597656 71.761719 C 126.554688 71.660156 126.523438 71.539062 126.5 71.402344 C 126.480469 71.273438 126.46875 71.128906 126.46875 70.988281 C 126.46875 70.84375 126.480469 70.699219 126.5 70.570312 C 126.523438 70.433594 126.554688 70.3125 126.597656 70.210938 C 126.640625 70.109375 126.683594 70.027344 126.738281 69.972656 C 126.792969 69.917969 126.847656 69.890625 126.90625 69.890625 C 126.964844 69.890625 127.019531 69.917969 127.074219 69.972656 C 127.128906 70.027344 127.175781 70.109375 127.214844 70.210938 C 127.257812 70.3125 127.289062 70.433594 127.3125 70.570312 C 127.332031 70.699219 127.34375 70.84375 127.34375 70.988281 Z M 127.34375 70.988281 "/>
</g>
<path style=" stroke:none;fill-rule:nonzero;fill:rgb(0%,29.019609%,67.843139%);fill-opacity:1;" d="M 126.039062 73.796875 C 126.039062 73.941406 126.027344 74.078125 126.003906 74.214844 C 125.984375 74.347656 125.953125 74.464844 125.910156 74.566406 C 125.867188 74.675781 125.820312 74.75 125.769531 74.804688 C 125.714844 74.863281 125.660156 74.890625 125.601562 74.890625 C 125.542969 74.890625 125.488281 74.863281 125.433594 74.804688 C 125.378906 74.75 125.332031 74.675781 125.292969 74.566406 C 125.25 74.464844 125.21875 74.347656 125.195312 74.214844 C 125.171875 74.078125 125.164062 73.941406 125.164062 73.796875 C 125.164062 73.648438 125.171875 73.511719 125.195312 73.375 C 125.21875 73.242188 125.25 73.125 125.292969 73.023438 C 125.332031 72.921875 125.378906 72.839844 125.433594 72.785156 C 125.488281 72.726562 125.542969 72.703125 125.601562 72.703125 C 125.660156 72.703125 125.714844 72.726562 125.769531 72.785156 C 125.820312 72.839844 125.867188 72.921875 125.910156 73.023438 C 125.953125 73.125 125.984375 73.242188 126.003906 73.375 C 126.027344 73.511719 126.039062 73.648438 126.039062 73.796875 Z M 126.039062 73.796875 "/>
<path style=" stroke:none;fill-rule:nonzero;fill:rgb(0%,29.019609%,67.843139%);fill-opacity:1;" d="M 124.167969 78.410156 C 124.167969 78.558594 124.160156 78.695312 124.136719 78.832031 C 124.113281 78.964844 124.082031 79.082031 124.042969 79.183594 C 124 79.285156 123.953125 79.367188 123.898438 79.421875 C 123.847656 79.480469 123.789062 79.503906 123.730469 79.503906 C 123.675781 79.503906 123.617188 79.480469 123.566406 79.421875 C 123.511719 79.367188 123.464844 79.285156 123.421875 79.183594 C 123.382812 79.082031 123.351562 78.964844 123.328125 78.832031 C 123.304688 78.695312 123.292969 78.558594 123.292969 78.410156 C 123.292969 78.265625 123.304688 78.125 123.328125 77.992188 C 123.351562 77.855469 123.382812 77.738281 123.421875 77.636719 C 123.464844 77.535156 123.511719 77.457031 123.566406 77.402344 C 123.617188 77.34375 123.675781 77.316406 123.730469 77.316406 C 123.789062 77.316406 123.847656 77.34375 123.898438 77.402344 C 123.953125 77.457031 124 77.535156 124.042969 77.636719 C 124.082031 77.738281 124.113281 77.855469 124.136719 77.992188 C 124.160156 78.125 124.167969 78.265625 124.167969 78.410156 Z M 124.167969 78.410156 "/>
<path style=" stroke:none;fill-rule:nonzero;fill:rgb(0%,29.019609%,67.843139%);fill-opacity:1;" d="M 124.09375 87.550781 C 124.09375 87.695312 124.082031 87.835938 124.058594 87.96875 C 124.035156 88.105469 124.003906 88.222656 123.964844 88.324219 C 123.921875 88.425781 123.875 88.507812 123.824219 88.5625 C 123.769531 88.617188 123.714844 88.644531 123.65625 88.644531 C 123.597656 88.644531 123.542969 88.617188 123.488281 88.5625 C 123.433594 88.507812 123.386719 88.425781 123.347656 88.324219 C 123.304688 88.222656 123.273438 88.105469 123.25 87.96875 C 123.226562 87.835938 123.21875 87.695312 123.21875 87.550781 C 123.21875 87.40625 123.226562 87.265625 123.25 87.132812 C 123.273438 86.996094 123.304688 86.878906 123.347656 86.777344 C 123.386719 86.671875 123.433594 86.597656 123.488281 86.539062 C 123.542969 86.484375 123.597656 86.457031 123.65625 86.457031 C 123.714844 86.457031 123.769531 86.484375 123.824219 86.539062 C 123.875 86.597656 123.921875 86.671875 123.964844 86.777344 C 124.003906 86.878906 124.035156 86.996094 124.058594 87.132812 C 124.082031 87.265625 124.09375 87.40625 124.09375 87.550781 Z M 124.09375 87.550781 "/>
<path style=" stroke:none;fill-rule:nonzero;fill:rgb(0%,29.019609%,67.843139%);fill-opacity:1;" d="M 120.644531 78.613281 C 120.644531 78.753906 120.636719 78.894531 120.613281 79.03125 C 120.589844 79.160156 120.558594 79.28125 120.519531 79.382812 C 120.476562 79.488281 120.429688 79.566406 120.375 79.621094 C 120.324219 79.675781 120.265625 79.707031 120.207031 79.707031 C 120.152344 79.707031 120.09375 79.675781 120.042969 79.621094 C 119.988281 79.566406 119.9375 79.488281 119.898438 79.382812 C 119.859375 79.28125 119.824219 79.160156 119.804688 79.03125 C 119.78125 78.894531 119.769531 78.753906 119.769531 78.613281 C 119.769531 78.464844 119.78125 78.328125 119.804688 78.191406 C 119.824219 78.058594 119.859375 77.9375 119.898438 77.835938 C 119.9375 77.734375 119.988281 77.652344 120.042969 77.597656 C 120.09375 77.542969 120.152344 77.515625 120.207031 77.515625 C 120.265625 77.515625 120.324219 77.542969 120.375 77.597656 C 120.429688 77.652344 120.476562 77.734375 120.519531 77.835938 C 120.558594 77.9375 120.589844 78.058594 120.613281 78.191406 C 120.636719 78.328125 120.644531 78.464844 120.644531 78.613281 Z M 120.644531 78.613281 "/>
<path style=" stroke:none;fill-rule:nonzero;fill:rgb(0%,29.019609%,67.843139%);fill-opacity:1;" d="M 125.558594 70 C 125.558594 70.132812 125.546875 70.257812 125.527344 70.378906 C 125.507812 70.5 125.480469 70.609375 125.441406 70.699219 C 125.40625 70.792969 125.363281 70.863281 125.316406 70.914062 C 125.265625 70.964844 125.214844 70.988281 125.164062 70.988281 C 125.109375 70.988281 125.058594 70.964844 125.011719 70.914062 C 124.964844 70.863281 124.921875 70.792969 124.882812 70.699219 C 124.847656 70.609375 124.816406 70.5 124.796875 70.378906 C 124.777344 70.257812 124.769531 70.132812 124.769531 70 C 124.769531 69.867188 124.777344 69.746094 124.796875 69.625 C 124.816406 69.5 124.847656 69.394531 124.882812 69.304688 C 124.921875 69.207031 124.964844 69.140625 125.011719 69.089844 C 125.058594 69.039062 125.109375 69.011719 125.164062 69.011719 C 125.214844 69.011719 125.265625 69.039062 125.316406 69.089844 C 125.363281 69.140625 125.40625 69.207031 125.441406 69.304688 C 125.480469 69.394531 125.507812 69.5 125.527344 69.625 C 125.546875 69.746094 125.558594 69.867188 125.558594 70 Z M 125.558594 70 "/>
<path style=" stroke:none;fill-rule:nonzero;fill:rgb(0%,29.019609%,67.843139%);fill-opacity:1;" d="M 113.25 71.507812 L 111.832031 71.507812 L 111.605469 73.1875 L 110.636719 73.1875 L 112.011719 63.695312 L 113.082031 63.695312 L 114.453125 73.1875 L 113.476562 73.1875 Z M 112.539062 66.253906 L 112.074219 69.722656 L 113.011719 69.722656 Z M 112.539062 66.253906 "/>
<path style=" stroke:none;fill-rule:nonzero;fill:rgb(0%,29.019609%,67.843139%);fill-opacity:1;" d="M 114.785156 63.613281 C 114.785156 62.914062 115.003906 62.359375 115.335938 62.359375 C 115.660156 62.359375 115.882812 62.914062 115.882812 63.613281 C 115.882812 64.304688 115.660156 64.859375 115.335938 64.859375 C 115.003906 64.859375 114.785156 64.304688 114.785156 63.613281 Z M 114.871094 65.644531 L 115.792969 65.644531 L 115.792969 73.1875 L 114.871094 73.1875 Z M 114.871094 65.644531 "/>
<path style=" stroke:none;fill-rule:nonzero;fill:rgb(0%,29.019609%,67.843139%);fill-opacity:1;" d="M 53.335938 73.953125 L 53.328125 66.515625 L 51.871094 72.640625 L 51.351562 72.640625 L 49.898438 66.675781 L 49.898438 73.953125 L 48.824219 73.953125 L 48.824219 61.558594 L 49.769531 61.558594 L 51.632812 69.257812 L 53.457031 61.558594 L 54.394531 61.558594 L 54.414062 73.953125 Z M 53.335938 73.953125 "/>
<path style=" stroke:none;fill-rule:nonzero;fill:rgb(0%,29.019609%,67.843139%);fill-opacity:1;" d="M 58.695312 74.171875 C 58.179688 74.171875 57.714844 73.894531 57.304688 73.339844 C 56.890625 72.78125 56.566406 72.011719 56.332031 71.039062 C 56.097656 70.066406 55.980469 68.972656 55.980469 67.757812 C 55.980469 66.542969 56.097656 65.449219 56.332031 64.476562 C 56.566406 63.503906 56.890625 62.738281 57.304688 62.183594 C 57.714844 61.632812 58.179688 61.355469 58.695312 61.355469 C 59.210938 61.355469 59.671875 61.632812 60.082031 62.183594 C 60.492188 62.738281 60.816406 63.503906 61.050781 64.476562 C 61.285156 65.449219 61.40625 66.542969 61.40625 67.757812 C 61.40625 68.972656 61.285156 70.066406 61.050781 71.039062 C 60.816406 72.011719 60.492188 72.78125 60.082031 73.339844 C 59.671875 73.894531 59.210938 74.171875 58.695312 74.171875 Z M 58.695312 71.722656 C 58.988281 71.722656 59.253906 71.558594 59.488281 71.226562 C 59.722656 70.886719 59.910156 70.417969 60.039062 69.8125 C 60.175781 69.210938 60.246094 68.523438 60.246094 67.757812 C 60.246094 66.992188 60.175781 66.304688 60.039062 65.699219 C 59.910156 65.097656 59.722656 64.632812 59.488281 64.300781 C 59.253906 63.960938 58.988281 63.789062 58.695312 63.789062 C 58.402344 63.789062 58.136719 63.960938 57.898438 64.300781 C 57.667969 64.632812 57.480469 65.097656 57.347656 65.699219 C 57.207031 66.304688 57.140625 66.992188 57.140625 67.757812 C 57.140625 68.523438 57.207031 69.210938 57.347656 69.8125 C 57.480469 70.417969 57.667969 70.886719 57.898438 71.226562 C 58.136719 71.558594 58.402344 71.722656 58.695312 71.722656 Z M 58.695312 71.722656 "/>
<path style=" stroke:none;fill-rule:nonzero;fill:rgb(0%,29.019609%,67.843139%);fill-opacity:1;" d="M 66.945312 71.621094 L 66.945312 73.953125 L 62.609375 73.953125 L 62.609375 72.101562 L 65.328125 63.890625 L 62.667969 63.890625 L 62.667969 61.558594 L 66.839844 61.558594 L 66.839844 63.425781 L 64.125 71.621094 Z M 66.945312 71.621094 "/>
<path style=" stroke:none;fill-rule:nonzero;fill:rgb(0%,29.019609%,67.843139%);fill-opacity:1;" d="M 74.742188 67.507812 C 75.027344 67.734375 75.246094 68.105469 75.40625 68.632812 C 75.566406 69.15625 75.648438 69.804688 75.648438 70.570312 C 75.648438 71.660156 75.476562 72.496094 75.140625 73.078125 C 74.804688 73.664062 74.3125 73.953125 73.664062 73.953125 L 71.101562 73.953125 L 71.101562 61.558594 L 73.523438 61.558594 C 74.125 61.558594 74.589844 61.851562 74.910156 62.433594 C 75.238281 63.007812 75.402344 63.789062 75.402344 64.78125 C 75.402344 65.386719 75.34375 65.925781 75.226562 66.398438 C 75.109375 66.867188 74.949219 67.238281 74.742188 67.507812 Z M 72.238281 63.714844 L 72.238281 66.648438 L 73.382812 66.648438 C 73.667969 66.648438 73.878906 66.527344 74.023438 66.28125 C 74.171875 66.03125 74.246094 65.664062 74.246094 65.175781 C 74.246094 64.691406 74.171875 64.324219 74.023438 64.082031 C 73.878906 63.839844 73.667969 63.714844 73.382812 63.714844 Z M 73.582031 71.796875 C 73.878906 71.796875 74.105469 71.675781 74.257812 71.429688 C 74.414062 71.179688 74.492188 70.789062 74.492188 70.265625 C 74.492188 69.242188 74.1875 68.734375 73.582031 68.734375 L 72.238281 68.734375 L 72.238281 71.796875 Z M 73.582031 71.796875 "/>
<path style=" stroke:none;fill-rule:nonzero;fill:rgb(0%,29.019609%,67.843139%);fill-opacity:1;" d="M 77.226562 61.558594 L 78.371094 61.558594 L 78.371094 73.953125 L 77.226562 73.953125 Z M 77.226562 61.558594 "/>
<path style=" stroke:none;fill-rule:nonzero;fill:rgb(0%,29.019609%,67.843139%);fill-opacity:1;" d="M 92.90625 73.953125 L 92.898438 66.515625 L 91.441406 72.640625 L 90.921875 72.640625 L 89.46875 66.675781 L 89.46875 73.953125 L 88.394531 73.953125 L 88.394531 61.558594 L 89.339844 61.558594 L 91.203125 69.257812 L 93.027344 61.558594 L 93.964844 61.558594 L 93.984375 73.953125 Z M 92.90625 73.953125 "/>
<path style=" stroke:none;fill-rule:nonzero;fill:rgb(0%,29.019609%,67.843139%);fill-opacity:1;" d="M 99.703125 71.648438 L 99.703125 73.953125 L 95.867188 73.953125 L 95.867188 61.558594 L 99.609375 61.558594 L 99.609375 63.863281 L 97.003906 63.863281 L 97.003906 66.558594 L 99.308594 66.558594 L 99.308594 68.792969 L 97.003906 68.792969 L 97.003906 71.648438 Z M 99.703125 71.648438 "/>
<path style=" stroke:none;fill-rule:nonzero;fill:rgb(0%,29.019609%,67.843139%);fill-opacity:1;" d="M 101.324219 61.558594 L 103.578125 61.558594 C 104.113281 61.558594 104.589844 61.816406 105 62.332031 C 105.417969 62.847656 105.738281 63.570312 105.964844 64.503906 C 106.191406 65.4375 106.308594 66.523438 106.308594 67.757812 C 106.308594 69.003906 106.191406 70.089844 105.964844 71.023438 C 105.738281 71.949219 105.417969 72.667969 105 73.179688 C 104.589844 73.699219 104.113281 73.953125 103.578125 73.953125 L 101.324219 73.953125 Z M 103.519531 71.605469 C 104.015625 71.605469 104.410156 71.261719 104.703125 70.570312 C 104.996094 69.871094 105.148438 68.933594 105.148438 67.757812 C 105.148438 66.582031 104.996094 65.648438 104.703125 64.957031 C 104.410156 64.265625 104.015625 63.921875 103.519531 63.921875 L 102.46875 63.921875 L 102.46875 71.605469 Z M 103.519531 71.605469 "/>
<g clip-path="url(#clip20)" clip-rule="nonzero">
<path style=" stroke:none;fill-rule:nonzero;fill:rgb(0%,29.019609%,67.843139%);fill-opacity:1;" d="M 81.980469 60.808594 L 79.566406 64.289062 L 79.566406 71.25 L 81.980469 74.730469 L 84.390625 71.25 L 84.390625 64.289062 Z M 84.160156 70.921875 L 81.980469 74.070312 L 79.796875 70.921875 L 79.796875 64.621094 L 81.980469 61.472656 L 84.160156 64.621094 Z M 80.429688 69.84375 L 82.035156 72.164062 L 81.921875 72.660156 L 80.3125 70.339844 Z M 81.921875 62.878906 L 82.035156 63.378906 L 80.429688 65.699219 L 80.3125 65.203125 Z M 83.699219 70.089844 L 83.46875 70.089844 L 83.46875 65.449219 L 83.699219 65.449219 Z M 83.699219 70.089844 "/>
</g>
<path style=" stroke:none;fill-rule:nonzero;fill:rgb(21.960784%,71.372551%,100%);fill-opacity:1;" d="M 53.585938 91.335938 L 52.933594 91.335938 L 52.785156 92.339844 L 52.578125 92.339844 L 53.171875 88.460938 L 53.347656 88.460938 L 53.941406 92.339844 L 53.730469 92.339844 Z M 52.996094 90.910156 L 53.523438 90.910156 L 53.257812 89.089844 Z M 52.996094 90.910156 "/>
<path style=" stroke:none;fill-rule:nonzero;fill:rgb(21.960784%,71.372551%,100%);fill-opacity:1;" d="M 54.550781 92.339844 L 54.347656 92.339844 L 54.347656 88.460938 L 54.550781 88.460938 Z M 54.550781 92.339844 "/>
<path style=" stroke:none;fill-rule:nonzero;fill:rgb(21.960784%,71.372551%,100%);fill-opacity:1;" d="M 56.710938 90.546875 L 56.039062 90.546875 L 56.039062 91.917969 L 56.820312 91.917969 L 56.820312 92.339844 L 55.835938 92.339844 L 55.835938 88.460938 L 56.808594 88.460938 L 56.808594 88.886719 L 56.039062 88.886719 L 56.039062 90.125 L 56.710938 90.125 Z M 56.710938 90.546875 "/>
<path style=" stroke:none;fill-rule:nonzero;fill:rgb(21.960784%,71.372551%,100%);fill-opacity:1;" d="M 57.519531 88.460938 L 58.027344 91.625 L 58.535156 88.460938 L 58.796875 88.460938 L 58.796875 92.339844 L 58.59375 92.339844 L 58.59375 90.824219 L 58.617188 89.207031 L 58.101562 92.339844 L 57.953125 92.339844 L 57.4375 89.207031 L 57.460938 90.824219 L 57.460938 92.339844 L 57.257812 92.339844 L 57.257812 88.460938 Z M 57.519531 88.460938 "/>
<path style=" stroke:none;fill-rule:nonzero;fill:rgb(21.960784%,71.372551%,100%);fill-opacity:1;" d="M 59.550781 90.824219 L 59.550781 92.339844 L 59.34375 92.339844 L 59.34375 88.460938 L 59.917969 88.460938 C 60.085938 88.460938 60.21875 88.574219 60.3125 88.796875 C 60.410156 89.011719 60.460938 89.292969 60.460938 89.644531 C 60.460938 90.023438 60.414062 90.3125 60.320312 90.519531 C 60.226562 90.722656 60.09375 90.824219 59.917969 90.824219 Z M 59.550781 90.402344 L 59.917969 90.402344 C 60.023438 90.402344 60.109375 90.339844 60.167969 90.210938 C 60.226562 90.089844 60.253906 89.902344 60.253906 89.65625 C 60.253906 89.425781 60.226562 89.242188 60.167969 89.105469 C 60.109375 88.96875 60.03125 88.894531 59.929688 88.886719 L 59.550781 88.886719 Z M 59.550781 90.402344 "/>
<path style=" stroke:none;fill-rule:nonzero;fill:rgb(21.960784%,71.372551%,100%);fill-opacity:1;" d="M 62.09375 90.53125 C 62.09375 90.910156 62.070312 91.242188 62.019531 91.523438 C 61.96875 91.808594 61.898438 92.027344 61.804688 92.179688 C 61.710938 92.328125 61.601562 92.398438 61.476562 92.398438 C 61.351562 92.398438 61.242188 92.328125 61.148438 92.179688 C 61.054688 92.027344 60.980469 91.8125 60.929688 91.539062 C 60.878906 91.257812 60.851562 90.933594 60.851562 90.5625 L 60.851562 90.285156 C 60.851562 89.90625 60.878906 89.578125 60.929688 89.292969 C 60.976562 89.011719 61.050781 88.792969 61.144531 88.636719 C 61.242188 88.484375 61.351562 88.402344 61.46875 88.402344 C 61.59375 88.402344 61.703125 88.484375 61.796875 88.636719 C 61.894531 88.78125 61.96875 89 62.019531 89.292969 C 62.070312 89.578125 62.09375 89.90625 62.09375 90.285156 Z M 61.898438 90.269531 C 61.898438 89.816406 61.859375 89.464844 61.785156 89.21875 C 61.710938 88.980469 61.605469 88.855469 61.46875 88.855469 C 61.34375 88.855469 61.242188 88.980469 61.167969 89.21875 C 61.09375 89.464844 61.054688 89.804688 61.050781 90.242188 L 61.050781 90.53125 C 61.050781 90.96875 61.085938 91.320312 61.160156 91.582031 C 61.238281 91.839844 61.34375 91.960938 61.476562 91.960938 C 61.609375 91.960938 61.710938 91.839844 61.78125 91.597656 C 61.851562 91.355469 61.890625 91.011719 61.898438 90.5625 Z M 61.898438 90.269531 "/>
<path style=" stroke:none;fill-rule:nonzero;fill:rgb(21.960784%,71.372551%,100%);fill-opacity:1;" d="M 62.921875 91.117188 L 62.949219 91.625 L 62.996094 91.175781 L 63.300781 88.460938 L 63.472656 88.460938 L 63.773438 91.175781 L 63.820312 91.640625 L 63.847656 91.117188 L 64.09375 88.460938 L 64.296875 88.460938 L 63.917969 92.339844 L 63.730469 92.339844 L 63.417969 89.511719 L 63.386719 89.21875 L 63.363281 89.511719 L 63.03125 92.339844 L 62.84375 92.339844 L 62.472656 88.460938 L 62.675781 88.460938 Z M 62.921875 91.117188 "/>
<path style=" stroke:none;fill-rule:nonzero;fill:rgb(21.960784%,71.372551%,100%);fill-opacity:1;" d="M 65.582031 90.546875 L 64.910156 90.546875 L 64.910156 91.917969 L 65.691406 91.917969 L 65.691406 92.339844 L 64.707031 92.339844 L 64.707031 88.460938 L 65.679688 88.460938 L 65.679688 88.886719 L 64.910156 88.886719 L 64.910156 90.125 L 65.582031 90.125 Z M 65.582031 90.546875 "/>
<path style=" stroke:none;fill-rule:nonzero;fill:rgb(21.960784%,71.372551%,100%);fill-opacity:1;" d="M 66.695312 90.765625 L 66.332031 90.765625 L 66.332031 92.339844 L 66.128906 92.339844 L 66.128906 88.460938 L 66.644531 88.460938 C 66.816406 88.460938 66.953125 88.5625 67.046875 88.769531 C 67.140625 88.964844 67.183594 89.25 67.183594 89.628906 C 67.183594 89.871094 67.15625 90.089844 67.105469 90.269531 C 67.054688 90.445312 66.980469 90.578125 66.886719 90.664062 L 67.253906 92.3125 L 67.253906 92.339844 L 67.035156 92.339844 Z M 66.332031 90.359375 L 66.648438 90.359375 C 66.75 90.359375 66.828125 90.296875 66.886719 90.167969 C 66.949219 90.035156 66.980469 89.855469 66.980469 89.628906 C 66.980469 89.386719 66.953125 89.203125 66.894531 89.074219 C 66.835938 88.949219 66.753906 88.886719 66.648438 88.886719 L 66.332031 88.886719 Z M 66.332031 90.359375 "/>
<path style=" stroke:none;fill-rule:nonzero;fill:rgb(21.960784%,71.372551%,100%);fill-opacity:1;" d="M 67.871094 92.339844 L 67.667969 92.339844 L 67.667969 88.460938 L 67.871094 88.460938 Z M 67.871094 92.339844 "/>
<path style=" stroke:none;fill-rule:nonzero;fill:rgb(21.960784%,71.372551%,100%);fill-opacity:1;" d="M 69.621094 92.339844 L 69.417969 92.339844 L 68.636719 89.351562 L 68.636719 92.339844 L 68.433594 92.339844 L 68.433594 88.460938 L 68.636719 88.460938 L 69.417969 91.464844 L 69.417969 88.460938 L 69.621094 88.460938 Z M 69.621094 92.339844 "/>
<path style=" stroke:none;fill-rule:nonzero;fill:rgb(21.960784%,71.372551%,100%);fill-opacity:1;" d="M 71.3125 91.832031 C 71.261719 92.015625 71.1875 92.160156 71.09375 92.253906 C 71 92.347656 70.890625 92.398438 70.765625 92.398438 C 70.640625 92.398438 70.527344 92.328125 70.429688 92.179688 C 70.328125 92.027344 70.253906 91.8125 70.199219 91.539062 C 70.148438 91.269531 70.121094 90.953125 70.117188 90.589844 L 70.117188 90.253906 C 70.117188 89.671875 70.171875 89.21875 70.28125 88.898438 C 70.390625 88.570312 70.542969 88.402344 70.742188 88.402344 C 70.90625 88.402344 71.035156 88.511719 71.132812 88.722656 C 71.234375 88.929688 71.292969 89.21875 71.3125 89.597656 L 71.109375 89.597656 C 71.070312 89.085938 70.949219 88.828125 70.742188 88.828125 C 70.605469 88.828125 70.503906 88.949219 70.433594 89.191406 C 70.363281 89.433594 70.328125 89.785156 70.328125 90.242188 L 70.328125 90.546875 C 70.328125 90.984375 70.367188 91.335938 70.445312 91.597656 C 70.523438 91.851562 70.628906 91.976562 70.765625 91.976562 C 70.84375 91.976562 70.910156 91.957031 70.96875 91.917969 C 71.027344 91.871094 71.074219 91.796875 71.109375 91.699219 L 71.109375 90.824219 L 70.753906 90.824219 L 70.753906 90.417969 L 71.3125 90.417969 Z M 71.3125 91.832031 "/>
<path style=" stroke:none;fill-rule:nonzero;fill:rgb(21.960784%,71.372551%,100%);fill-opacity:1;" d="M 72.824219 88.460938 L 73.332031 91.625 L 73.839844 88.460938 L 74.105469 88.460938 L 74.105469 92.339844 L 73.898438 92.339844 L 73.898438 90.824219 L 73.921875 89.207031 L 73.410156 92.339844 L 73.257812 92.339844 L 72.746094 89.207031 L 72.769531 90.824219 L 72.769531 92.339844 L 72.5625 92.339844 L 72.5625 88.460938 Z M 72.824219 88.460938 "/>
<path style=" stroke:none;fill-rule:nonzero;fill:rgb(21.960784%,71.372551%,100%);fill-opacity:1;" d="M 75.839844 90.53125 C 75.839844 90.910156 75.816406 91.242188 75.765625 91.523438 C 75.714844 91.808594 75.644531 92.027344 75.550781 92.179688 C 75.457031 92.328125 75.347656 92.398438 75.222656 92.398438 C 75.097656 92.398438 74.988281 92.328125 74.894531 92.179688 C 74.804688 92.027344 74.730469 91.8125 74.675781 91.539062 C 74.625 91.257812 74.597656 90.933594 74.597656 90.5625 L 74.597656 90.285156 C 74.597656 89.90625 74.625 89.578125 74.675781 89.292969 C 74.722656 89.011719 74.796875 88.792969 74.890625 88.636719 C 74.988281 88.484375 75.097656 88.402344 75.21875 88.402344 C 75.339844 88.402344 75.449219 88.484375 75.542969 88.636719 C 75.640625 88.78125 75.714844 89 75.765625 89.292969 C 75.816406 89.578125 75.839844 89.90625 75.839844 90.285156 Z M 75.644531 90.269531 C 75.644531 89.816406 75.605469 89.464844 75.53125 89.21875 C 75.457031 88.980469 75.351562 88.855469 75.21875 88.855469 C 75.089844 88.855469 74.988281 88.980469 74.914062 89.21875 C 74.839844 89.464844 74.800781 89.804688 74.796875 90.242188 L 74.796875 90.53125 C 74.796875 90.96875 74.832031 91.320312 74.90625 91.582031 C 74.984375 91.839844 75.089844 91.960938 75.222656 91.960938 C 75.355469 91.960938 75.457031 91.839844 75.527344 91.597656 C 75.597656 91.355469 75.640625 91.011719 75.644531 90.5625 Z M 75.644531 90.269531 "/>
<path style=" stroke:none;fill-rule:nonzero;fill:rgb(21.960784%,71.372551%,100%);fill-opacity:1;" d="M 76.460938 91.917969 L 77.347656 91.917969 L 77.347656 92.339844 L 76.222656 92.339844 L 76.222656 91.960938 L 77.066406 88.886719 L 76.234375 88.886719 L 76.234375 88.460938 L 77.3125 88.460938 L 77.3125 88.839844 Z M 76.460938 91.917969 "/>
<path style=" stroke:none;fill-rule:nonzero;fill:rgb(21.960784%,71.372551%,100%);fill-opacity:1;" d="M 78.671875 91.335938 L 78.015625 91.335938 L 77.871094 92.339844 L 77.660156 92.339844 L 78.257812 88.460938 L 78.429688 88.460938 L 79.027344 92.339844 L 78.816406 92.339844 Z M 78.082031 90.910156 L 78.605469 90.910156 L 78.34375 89.089844 Z M 78.082031 90.910156 "/>
<path style=" stroke:none;fill-rule:nonzero;fill:rgb(21.960784%,71.372551%,100%);fill-opacity:1;" d="M 79.683594 88.460938 L 80.1875 91.625 L 80.695312 88.460938 L 80.960938 88.460938 L 80.960938 92.339844 L 80.753906 92.339844 L 80.753906 90.824219 L 80.777344 89.207031 L 80.265625 92.339844 L 80.113281 92.339844 L 79.601562 89.207031 L 79.625 90.824219 L 79.625 92.339844 L 79.417969 92.339844 L 79.417969 88.460938 Z M 79.683594 88.460938 "/>
<path style=" stroke:none;fill-rule:nonzero;fill:rgb(21.960784%,71.372551%,100%);fill-opacity:1;" d="M 81.507812 92.339844 L 81.507812 88.460938 L 82.015625 88.460938 C 82.179688 88.460938 82.308594 88.550781 82.394531 88.722656 C 82.476562 88.898438 82.523438 89.160156 82.523438 89.496094 C 82.523438 89.683594 82.5 89.84375 82.457031 89.980469 C 82.417969 90.117188 82.363281 90.222656 82.289062 90.300781 C 82.375 90.359375 82.441406 90.472656 82.488281 90.636719 C 82.535156 90.800781 82.5625 90.996094 82.5625 91.21875 C 82.5625 91.566406 82.515625 91.84375 82.421875 92.050781 C 82.332031 92.246094 82.207031 92.339844 82.042969 92.339844 Z M 81.710938 90.53125 L 81.710938 91.917969 L 82.050781 91.917969 C 82.144531 91.917969 82.214844 91.859375 82.269531 91.742188 C 82.328125 91.621094 82.359375 91.449219 82.359375 91.234375 C 82.359375 90.765625 82.253906 90.53125 82.050781 90.53125 Z M 81.710938 90.125 L 82.019531 90.125 C 82.109375 90.125 82.179688 90.074219 82.230469 89.964844 C 82.285156 89.847656 82.3125 89.695312 82.3125 89.496094 C 82.3125 89.285156 82.285156 89.128906 82.234375 89.03125 C 82.191406 88.9375 82.113281 88.886719 82.015625 88.886719 L 81.710938 88.886719 Z M 81.710938 90.125 "/>
<path style=" stroke:none;fill-rule:nonzero;fill:rgb(21.960784%,71.372551%,100%);fill-opacity:1;" d="M 83.265625 92.339844 L 83.058594 92.339844 L 83.058594 88.460938 L 83.265625 88.460938 Z M 83.265625 92.339844 "/>
<path style=" stroke:none;fill-rule:nonzero;fill:rgb(21.960784%,71.372551%,100%);fill-opacity:1;" d="M 85.007812 90.53125 C 85.007812 90.90625 84.984375 91.226562 84.933594 91.496094 C 84.886719 91.769531 84.820312 91.984375 84.734375 92.136719 L 85.015625 92.675781 L 84.875 92.996094 L 84.546875 92.339844 C 84.496094 92.378906 84.441406 92.398438 84.386719 92.398438 C 84.265625 92.398438 84.15625 92.328125 84.058594 92.179688 C 83.964844 92.027344 83.890625 91.8125 83.835938 91.539062 C 83.785156 91.257812 83.761719 90.933594 83.761719 90.5625 L 83.761719 90.285156 C 83.761719 89.90625 83.785156 89.578125 83.835938 89.292969 C 83.890625 89.011719 83.964844 88.792969 84.058594 88.636719 C 84.152344 88.484375 84.257812 88.402344 84.386719 88.402344 C 84.507812 88.402344 84.617188 88.484375 84.710938 88.636719 C 84.808594 88.792969 84.882812 89.011719 84.933594 89.292969 C 84.984375 89.578125 85.007812 89.90625 85.007812 90.285156 Z M 84.804688 90.269531 C 84.804688 89.824219 84.765625 89.480469 84.695312 89.234375 C 84.621094 88.984375 84.515625 88.855469 84.386719 88.855469 C 84.257812 88.855469 84.15625 88.980469 84.082031 89.21875 C 84.007812 89.464844 83.96875 89.804688 83.964844 90.242188 L 83.964844 90.53125 C 83.964844 90.96875 84 91.320312 84.074219 91.582031 C 84.148438 91.839844 84.253906 91.960938 84.386719 91.960938 C 84.515625 91.960938 84.617188 91.839844 84.6875 91.597656 C 84.761719 91.355469 84.800781 91.011719 84.804688 90.5625 Z M 84.804688 90.269531 "/>
<path style=" stroke:none;fill-rule:nonzero;fill:rgb(21.960784%,71.372551%,100%);fill-opacity:1;" d="M 86.597656 88.460938 L 86.597656 91.101562 C 86.597656 91.472656 86.550781 91.773438 86.457031 92.003906 C 86.367188 92.230469 86.246094 92.355469 86.089844 92.386719 L 86.03125 92.398438 C 85.867188 92.398438 85.730469 92.289062 85.628906 92.0625 C 85.527344 91.832031 85.480469 91.511719 85.480469 91.101562 L 85.480469 88.460938 L 85.675781 88.460938 L 85.675781 91.085938 C 85.675781 91.371094 85.707031 91.589844 85.769531 91.742188 C 85.832031 91.898438 85.917969 91.976562 86.03125 91.976562 C 86.148438 91.976562 86.238281 91.898438 86.300781 91.742188 C 86.363281 91.589844 86.394531 91.371094 86.394531 91.085938 L 86.394531 88.460938 Z M 86.597656 88.460938 "/>
<path style=" stroke:none;fill-rule:nonzero;fill:rgb(21.960784%,71.372551%,100%);fill-opacity:1;" d="M 87.980469 90.546875 L 87.308594 90.546875 L 87.308594 91.917969 L 88.089844 91.917969 L 88.089844 92.339844 L 87.105469 92.339844 L 87.105469 88.460938 L 88.078125 88.460938 L 88.078125 88.886719 L 87.308594 88.886719 L 87.308594 90.125 L 87.980469 90.125 Z M 87.980469 90.546875 "/>
<path style=" stroke:none;fill-rule:nonzero;fill:rgb(21.960784%,71.372551%,100%);fill-opacity:1;" d="M 90.441406 92.339844 L 90.238281 92.339844 L 90.238281 90.546875 L 89.457031 90.546875 L 89.457031 92.339844 L 89.253906 92.339844 L 89.253906 88.460938 L 89.457031 88.460938 L 89.457031 90.125 L 90.238281 90.125 L 90.238281 88.460938 L 90.441406 88.460938 Z M 90.441406 92.339844 "/>
<path style=" stroke:none;fill-rule:nonzero;fill:rgb(21.960784%,71.372551%,100%);fill-opacity:1;" d="M 91.867188 90.546875 L 91.195312 90.546875 L 91.195312 91.917969 L 91.976562 91.917969 L 91.976562 92.339844 L 90.992188 92.339844 L 90.992188 88.460938 L 91.964844 88.460938 L 91.964844 88.886719 L 91.195312 88.886719 L 91.195312 90.125 L 91.867188 90.125 Z M 91.867188 90.546875 "/>
<path style=" stroke:none;fill-rule:nonzero;fill:rgb(21.960784%,71.372551%,100%);fill-opacity:1;" d="M 93.269531 91.335938 L 92.617188 91.335938 L 92.472656 92.339844 L 92.261719 92.339844 L 92.855469 88.460938 L 93.03125 88.460938 L 93.628906 92.339844 L 93.417969 92.339844 Z M 92.683594 90.910156 L 93.207031 90.910156 L 92.945312 89.089844 Z M 92.683594 90.910156 "/>
<path style=" stroke:none;fill-rule:nonzero;fill:rgb(21.960784%,71.372551%,100%);fill-opacity:1;" d="M 94.222656 91.917969 L 94.960938 91.917969 L 94.960938 92.339844 L 94.019531 92.339844 L 94.019531 88.460938 L 94.222656 88.460938 Z M 94.222656 91.917969 "/>
<path style=" stroke:none;fill-rule:nonzero;fill:rgb(21.960784%,71.372551%,100%);fill-opacity:1;" d="M 96.15625 88.886719 L 95.65625 88.886719 L 95.65625 92.339844 L 95.453125 92.339844 L 95.453125 88.886719 L 94.957031 88.886719 L 94.957031 88.460938 L 96.15625 88.460938 Z M 96.15625 88.886719 "/>
<path style=" stroke:none;fill-rule:nonzero;fill:rgb(21.960784%,71.372551%,100%);fill-opacity:1;" d="M 97.757812 92.339844 L 97.554688 92.339844 L 97.554688 90.546875 L 96.773438 90.546875 L 96.773438 92.339844 L 96.570312 92.339844 L 96.570312 88.460938 L 96.773438 88.460938 L 96.773438 90.125 L 97.554688 90.125 L 97.554688 88.460938 L 97.757812 88.460938 Z M 97.757812 92.339844 "/>
<path style=" stroke:none;fill-rule:nonzero;fill:rgb(21.960784%,71.372551%,100%);fill-opacity:1;" d="M 99.445312 91.117188 C 99.429688 91.523438 99.371094 91.839844 99.265625 92.0625 C 99.164062 92.289062 99.027344 92.398438 98.863281 92.398438 C 98.679688 92.398438 98.53125 92.234375 98.417969 91.902344 C 98.308594 91.574219 98.253906 91.128906 98.253906 90.578125 L 98.253906 90.210938 C 98.253906 89.855469 98.28125 89.539062 98.332031 89.265625 C 98.378906 88.996094 98.453125 88.78125 98.546875 88.636719 C 98.644531 88.484375 98.753906 88.402344 98.878906 88.402344 C 99.042969 88.402344 99.171875 88.519531 99.269531 88.753906 C 99.371094 88.988281 99.429688 89.308594 99.445312 89.714844 L 99.242188 89.714844 C 99.226562 89.40625 99.183594 89.183594 99.125 89.046875 C 99.066406 88.898438 98.984375 88.828125 98.878906 88.828125 C 98.746094 88.828125 98.644531 88.949219 98.570312 89.191406 C 98.496094 89.433594 98.460938 89.78125 98.460938 90.226562 L 98.460938 90.605469 C 98.460938 91.023438 98.496094 91.359375 98.5625 91.613281 C 98.632812 91.855469 98.734375 91.976562 98.863281 91.976562 C 98.972656 91.976562 99.058594 91.914062 99.117188 91.785156 C 99.179688 91.664062 99.21875 91.4375 99.242188 91.117188 Z M 99.445312 91.117188 "/>
<path style=" stroke:none;fill-rule:nonzero;fill:rgb(21.960784%,71.372551%,100%);fill-opacity:1;" d="M 100.769531 91.335938 L 100.113281 91.335938 L 99.96875 92.339844 L 99.757812 92.339844 L 100.355469 88.460938 L 100.527344 88.460938 L 101.125 92.339844 L 100.914062 92.339844 Z M 100.179688 90.910156 L 100.703125 90.910156 L 100.441406 89.089844 Z M 100.179688 90.910156 "/>
<path style=" stroke:none;fill-rule:nonzero;fill:rgb(21.960784%,71.372551%,100%);fill-opacity:1;" d="M 102.082031 90.765625 L 101.722656 90.765625 L 101.722656 92.339844 L 101.515625 92.339844 L 101.515625 88.460938 L 102.03125 88.460938 C 102.207031 88.460938 102.339844 88.5625 102.433594 88.769531 C 102.527344 88.964844 102.574219 89.25 102.574219 89.628906 C 102.574219 89.871094 102.546875 90.089844 102.492188 90.269531 C 102.441406 90.445312 102.367188 90.578125 102.273438 90.664062 L 102.644531 92.3125 L 102.644531 92.339844 L 102.421875 92.339844 Z M 101.722656 90.359375 L 102.035156 90.359375 C 102.136719 90.359375 102.21875 90.296875 102.273438 90.167969 C 102.335938 90.035156 102.367188 89.855469 102.367188 89.628906 C 102.367188 89.386719 102.339844 89.203125 102.28125 89.074219 C 102.222656 88.949219 102.140625 88.886719 102.035156 88.886719 L 101.722656 88.886719 Z M 101.722656 90.359375 "/>
<path style=" stroke:none;fill-rule:nonzero;fill:rgb(21.960784%,71.372551%,100%);fill-opacity:1;" d="M 103.917969 90.546875 L 103.246094 90.546875 L 103.246094 91.917969 L 104.03125 91.917969 L 104.03125 92.339844 L 103.042969 92.339844 L 103.042969 88.460938 L 104.019531 88.460938 L 104.019531 88.886719 L 103.246094 88.886719 L 103.246094 90.125 L 103.917969 90.125 Z M 103.917969 90.546875 "/>
</g>
</svg>
